<svg xmlns="http://www.w3.org/2000/svg" width="303.812" height="306.113" viewBox="0 0 303.812 306.113">
  <g id="Group_240" data-name="Group 240" opacity="0.15">
    <path id="Path_199" data-name="Path 199" d="M916.074,510.174V636.941l88.977,89.677h125.868l88.967-89.677V510.174l-88.967-89.668H1005.051Zm9.286,3.812,83.56-84.2h118.135l83.555,84.2V633.12l-83.555,84.213H1008.919l-83.56-84.213Z" transform="translate(-916.074 -420.506)" fill="#c7a177"/>
    <path id="Path_200" data-name="Path 200" d="M994.609,426.441l-72.646,73.2V603.13l72.646,73.218h102.765L1170,603.13V499.64l-72.626-73.2Zm3.863,9.285h41.958v82.182h-18.339V460.567H983.86v20.171l-15.081-15.081ZM993.415,498.8v-28.69h19.115v47.8H964.744V498.8Zm76.462,76.452h-18.339v-18.31h18.339Zm57.346-76.452v19.106h-47.782v-47.8h19.125V498.8Zm-57.346,28.657v19.92h-18.339v-19.92h18.339Zm-29.448,47.8H1022.1v-18.31h18.329ZM1022.1,547.379v-19.92h18.329v19.92Zm101.16-81.67-15.152,15.143V460.567h-38.24v57.342h-18.33V435.726h41.967Zm37.464,37.753v43.918h-81.282v-19.92h57.337V489.238h-21.743l15.853-15.844Zm0,95.857L1131.7,628.572,1116.636,613.5h20.152v-38.24h-57.346v-18.31h81.282Zm-62.167,4.607V632.6h-19.115V584.82h47.782v19.106Zm-5.052,63.137h-41.967V584.82h18.339v57.346h38.231V620.314l15.962,15.952Zm-125.541-30.75,15.9-15.9v21.753h38.231V584.82h18.339v82.243H998.472Zm-3.22-32.388V584.82h47.787V632.6H993.415V603.926Zm-33.486-4.607V556.944h81.282v18.31H955.189V613.5h20.276l-15.133,15.133Zm0-95.857,29.888-30.12,15.9,15.9H955.189v38.221h57.351v19.92H931.258Z" transform="translate(-894.078 -398.338)" fill="#c7a177"/>
  </g>
</svg>
