<svg xmlns="http://www.w3.org/2000/svg" width="316" height="143" viewBox="0 0 316 143">
  <g id="Group_240" data-name="Group 240" transform="translate(-540 -3019)">
    <rect id="Rectangle_143" data-name="Rectangle 143" width="288" height="115" transform="translate(554 3033)" fill="#f9f8f5"/>
    <g id="Rectangle_152" data-name="Rectangle 152" transform="translate(554 3033)" fill="none" stroke="#303b57" stroke-width="3">
      <rect width="288" height="14" stroke="none"/>
      <rect x="1.5" y="1.5" width="285" height="11" fill="none"/>
    </g>
    <g id="Rectangle_150" data-name="Rectangle 150" transform="translate(554 3044)" fill="none" stroke="#303b57" stroke-width="3">
      <rect width="25" height="14" stroke="none"/>
      <rect x="1.5" y="1.5" width="22" height="11" fill="none"/>
    </g>
    <g id="Rectangle_153" data-name="Rectangle 153" transform="translate(554 3055)" fill="none" stroke="#303b57" stroke-width="3">
      <rect width="13" height="14" stroke="none"/>
      <rect x="1.5" y="1.5" width="10" height="11" fill="none"/>
    </g>
    <g id="Rectangle_157" data-name="Rectangle 157" transform="translate(540 3019)" fill="#fff" stroke="#303b57" stroke-width="3">
      <rect width="14" height="14" stroke="none"/>
      <rect x="1.5" y="1.5" width="11" height="11" fill="none"/>
    </g>
    <g id="Rectangle_154" data-name="Rectangle 154" transform="translate(540 3148)" fill="#fff" stroke="#303b57" stroke-width="3">
      <rect width="14" height="14" stroke="none"/>
      <rect x="1.5" y="1.5" width="11" height="11" fill="none"/>
    </g>
    <g id="Rectangle_158" data-name="Rectangle 158" transform="translate(842 3019)" fill="#fff" stroke="#303b57" stroke-width="3">
      <rect width="14" height="14" stroke="none"/>
      <rect x="1.5" y="1.5" width="11" height="11" fill="none"/>
    </g>
    <g id="Rectangle_142" data-name="Rectangle 142" transform="translate(842 3148)" fill="#fff" stroke="#303b57" stroke-width="3">
      <rect width="14" height="14" stroke="none"/>
      <rect x="1.5" y="1.5" width="11" height="11" fill="none"/>
    </g>
    <g id="Rectangle_155" data-name="Rectangle 155" transform="translate(554 3112)" fill="none" stroke="#303b57" stroke-width="3">
      <rect width="13" height="14" stroke="none"/>
      <rect x="1.5" y="1.5" width="10" height="11" fill="none"/>
    </g>
    <g id="Rectangle_151" data-name="Rectangle 151" transform="translate(554 3123)" fill="none" stroke="#303b57" stroke-width="3">
      <rect width="25" height="14" stroke="none"/>
      <rect x="1.5" y="1.5" width="22" height="11" fill="none"/>
    </g>
    <g id="Rectangle_149" data-name="Rectangle 149" transform="translate(817 3044)" fill="none" stroke="#303b57" stroke-width="3">
      <rect width="25" height="14" stroke="none"/>
      <rect x="1.5" y="1.5" width="22" height="11" fill="none"/>
    </g>
    <g id="Rectangle_148" data-name="Rectangle 148" transform="translate(829 3055)" fill="none" stroke="#303b57" stroke-width="3">
      <rect width="13" height="14" stroke="none"/>
      <rect x="1.5" y="1.5" width="10" height="11" fill="none"/>
    </g>
    <g id="Rectangle_147" data-name="Rectangle 147" transform="translate(829 3112)" fill="none" stroke="#303b57" stroke-width="3">
      <rect width="13" height="14" stroke="none"/>
      <rect x="1.5" y="1.5" width="10" height="11" fill="none"/>
    </g>
    <g id="Rectangle_146" data-name="Rectangle 146" transform="translate(817 3123)" fill="none" stroke="#303b57" stroke-width="3">
      <rect width="25" height="14" stroke="none"/>
      <rect x="1.5" y="1.5" width="22" height="11" fill="none"/>
    </g>
    <g id="Rectangle_144" data-name="Rectangle 144" transform="translate(554 3134)" fill="none" stroke="#303b57" stroke-width="3">
      <rect width="288" height="14" stroke="none"/>
      <rect x="1.5" y="1.5" width="285" height="11" fill="none"/>
    </g>
    <g id="Rectangle_145" data-name="Rectangle 145" transform="translate(842 3033) rotate(90)" fill="none" stroke="#303b57" stroke-width="3">
      <rect width="115" height="13" stroke="none"/>
      <rect x="1.5" y="1.5" width="112" height="10" fill="none"/>
    </g>
    <g id="Rectangle_156" data-name="Rectangle 156" transform="translate(567 3033) rotate(90)" fill="none" stroke="#303b57" stroke-width="3">
      <rect width="115" height="13" stroke="none"/>
      <rect x="1.5" y="1.5" width="112" height="10" fill="none"/>
    </g>
  </g>
</svg>
