<svg id="Component_19_1" data-name="Component 19 – 1" xmlns="http://www.w3.org/2000/svg" width="316" height="260" viewBox="0 0 316 260">
  <g id="Group_242" data-name="Group 242" transform="translate(-22 -299)">
    <g id="Group_241" data-name="Group 241">
      <g id="Group_240" data-name="Group 240">
        <g id="Rectangle_296" data-name="Rectangle 296" transform="translate(22 299)" fill="none" stroke="#303b57" stroke-width="3">
          <rect width="14" height="14" stroke="none"/>
          <rect x="1.5" y="1.5" width="11" height="11" fill="none"/>
        </g>
        <g id="Rectangle_298" data-name="Rectangle 298" transform="translate(324 299)" fill="none" stroke="#303b57" stroke-width="3">
          <rect width="14" height="14" stroke="none"/>
          <rect x="1.5" y="1.5" width="11" height="11" fill="none"/>
        </g>
        <rect id="Rectangle_292" data-name="Rectangle 292" width="288" height="232" transform="translate(36 313)" fill="#f9f8f5"/>
        <g id="Rectangle_293" data-name="Rectangle 293" transform="translate(36 313)" fill="none" stroke="#303b57" stroke-width="3">
          <rect width="288" height="14" stroke="none"/>
          <rect x="1.5" y="1.5" width="285" height="11" fill="none"/>
        </g>
        <g id="Rectangle_308" data-name="Rectangle 308" transform="translate(49 313) rotate(90)" fill="none" stroke="#303b57" stroke-width="3">
          <rect width="232" height="13" stroke="none"/>
          <rect x="1.5" y="1.5" width="229" height="10" fill="none"/>
        </g>
        <g id="Rectangle_307" data-name="Rectangle 307" transform="translate(324 313) rotate(90)" fill="none" stroke="#303b57" stroke-width="3">
          <rect width="232" height="13" stroke="none"/>
          <rect x="1.5" y="1.5" width="229" height="10" fill="none"/>
        </g>
        <g id="Rectangle_294" data-name="Rectangle 294" transform="translate(36 324)" fill="none" stroke="#303b57" stroke-width="3">
          <rect width="25" height="14" stroke="none"/>
          <rect x="1.5" y="1.5" width="22" height="11" fill="none"/>
        </g>
        <g id="Rectangle_302" data-name="Rectangle 302" transform="translate(299 324)" fill="none" stroke="#303b57" stroke-width="3">
          <rect width="25" height="14" stroke="none"/>
          <rect x="1.5" y="1.5" width="22" height="11" fill="none"/>
        </g>
        <g id="Rectangle_295" data-name="Rectangle 295" transform="translate(36 335)" fill="none" stroke="#303b57" stroke-width="3">
          <rect width="13" height="14" stroke="none"/>
          <rect x="1.5" y="1.5" width="10" height="11" fill="none"/>
        </g>
        <g id="Rectangle_303" data-name="Rectangle 303" transform="translate(311 335)" fill="none" stroke="#303b57" stroke-width="3">
          <rect width="13" height="14" stroke="none"/>
          <rect x="1.5" y="1.5" width="10" height="11" fill="none"/>
        </g>
        <g id="Rectangle_300" data-name="Rectangle 300" transform="translate(36 509)" fill="none" stroke="#303b57" stroke-width="3">
          <rect width="13" height="14" stroke="none"/>
          <rect x="1.5" y="1.5" width="10" height="11" fill="none"/>
        </g>
        <g id="Rectangle_304" data-name="Rectangle 304" transform="translate(311 509)" fill="none" stroke="#303b57" stroke-width="3">
          <rect width="13" height="14" stroke="none"/>
          <rect x="1.5" y="1.5" width="10" height="11" fill="none"/>
        </g>
        <g id="Rectangle_301" data-name="Rectangle 301" transform="translate(36 520)" fill="none" stroke="#303b57" stroke-width="3">
          <rect width="25" height="14" stroke="none"/>
          <rect x="1.5" y="1.5" width="22" height="11" fill="none"/>
        </g>
        <g id="Rectangle_305" data-name="Rectangle 305" transform="translate(299 520)" fill="none" stroke="#303b57" stroke-width="3">
          <rect width="25" height="14" stroke="none"/>
          <rect x="1.5" y="1.5" width="22" height="11" fill="none"/>
        </g>
        <g id="Rectangle_306" data-name="Rectangle 306" transform="translate(36 531)" fill="none" stroke="#303b57" stroke-width="3">
          <rect width="288" height="14" stroke="none"/>
          <rect x="1.5" y="1.5" width="285" height="11" fill="none"/>
        </g>
        <g id="Rectangle_297" data-name="Rectangle 297" transform="translate(22 545)" fill="none" stroke="#303b57" stroke-width="3">
          <rect width="14" height="14" stroke="none"/>
          <rect x="1.5" y="1.5" width="11" height="11" fill="none"/>
        </g>
        <g id="Rectangle_299" data-name="Rectangle 299" transform="translate(324 545)" fill="none" stroke="#303b57" stroke-width="3">
          <rect width="14" height="14" stroke="none"/>
          <rect x="1.5" y="1.5" width="11" height="11" fill="none"/>
        </g>
      </g>
    </g>
  </g>
</svg>
