<svg xmlns="http://www.w3.org/2000/svg" width="292" height="274" viewBox="0 0 292 274">
  <g id="Group_384" data-name="Group 384" transform="translate(-33 -116)">
    <g id="Rectangle_174" data-name="Rectangle 174" transform="translate(47 130)" fill="none" stroke="#303b57" stroke-width="3">
      <rect width="264" height="14" stroke="none"/>
      <rect x="1.5" y="1.5" width="261" height="11" fill="none"/>
    </g>
    <g id="Rectangle_175" data-name="Rectangle 175" transform="translate(47 141)" fill="none" stroke="#303b57" stroke-width="3">
      <rect width="13" height="14" stroke="none"/>
      <rect x="1.5" y="1.5" width="10" height="11" fill="none"/>
    </g>
    <g id="Rectangle_176" data-name="Rectangle 176" transform="translate(47 152)" fill="none" stroke="#303b57" stroke-width="3">
      <rect width="13" height="14" stroke="none"/>
      <rect x="1.5" y="1.5" width="10" height="11" fill="none"/>
    </g>
    <g id="Rectangle_177" data-name="Rectangle 177" transform="translate(33 116)" fill="none" stroke="#303b57" stroke-width="3">
      <rect width="14" height="14" stroke="none"/>
      <rect x="1.5" y="1.5" width="11" height="11" fill="none"/>
    </g>
    <g id="Rectangle_178" data-name="Rectangle 178" transform="translate(33 376)" fill="none" stroke="#303b57" stroke-width="3">
      <rect width="14" height="14" stroke="none"/>
      <rect x="1.5" y="1.5" width="11" height="11" fill="none"/>
    </g>
    <g id="Rectangle_179" data-name="Rectangle 179" transform="translate(311 116)" fill="none" stroke="#303b57" stroke-width="3">
      <rect width="14" height="14" stroke="none"/>
      <rect x="1.5" y="1.5" width="11" height="11" fill="none"/>
    </g>
    <g id="Rectangle_180" data-name="Rectangle 180" transform="translate(311 376)" fill="none" stroke="#303b57" stroke-width="3">
      <rect width="14" height="14" stroke="none"/>
      <rect x="1.5" y="1.5" width="11" height="11" fill="none"/>
    </g>
    <g id="Rectangle_181" data-name="Rectangle 181" transform="translate(47 340)" fill="none" stroke="#303b57" stroke-width="3">
      <rect width="13" height="14" stroke="none"/>
      <rect x="1.5" y="1.5" width="10" height="11" fill="none"/>
    </g>
    <g id="Rectangle_184" data-name="Rectangle 184" transform="translate(298 152)" fill="none" stroke="#303b57" stroke-width="3">
      <rect width="13" height="14" stroke="none"/>
      <rect x="1.5" y="1.5" width="10" height="11" fill="none"/>
    </g>
    <g id="Rectangle_185" data-name="Rectangle 185" transform="translate(298 340)" fill="none" stroke="#303b57" stroke-width="3">
      <rect width="13" height="14" stroke="none"/>
      <rect x="1.5" y="1.5" width="10" height="11" fill="none"/>
    </g>
    <g id="Rectangle_186" data-name="Rectangle 186" transform="translate(298 351)" fill="none" stroke="#303b57" stroke-width="3">
      <rect width="13" height="14" stroke="none"/>
      <rect x="1.5" y="1.5" width="10" height="11" fill="none"/>
    </g>
    <g id="Rectangle_187" data-name="Rectangle 187" transform="translate(47 362)" fill="none" stroke="#303b57" stroke-width="3">
      <rect width="264" height="14" stroke="none"/>
      <rect x="1.5" y="1.5" width="261" height="11" fill="none"/>
    </g>
    <g id="Rectangle_188" data-name="Rectangle 188" transform="translate(311 130) rotate(90)" fill="none" stroke="#303b57" stroke-width="3">
      <rect width="246" height="13" stroke="none"/>
      <rect x="1.5" y="1.5" width="243" height="10" fill="none"/>
    </g>
    <g id="Rectangle_189" data-name="Rectangle 189" transform="translate(60 130) rotate(90)" fill="none" stroke="#303b57" stroke-width="3">
      <rect width="246" height="13" stroke="none"/>
      <rect x="1.5" y="1.5" width="243" height="10" fill="none"/>
    </g>
  </g>
</svg>
