<svg xmlns="http://www.w3.org/2000/svg" width="17.625" height="17.625" viewBox="0 0 17.625 17.625">
  <path id="Icon_awesome-exclamation-circle" data-name="Icon awesome-exclamation-circle" d="M18.187,9.375A8.812,8.812,0,1,1,9.375.563,8.812,8.812,0,0,1,18.187,9.375ZM9.375,11.152a1.635,1.635,0,1,0,1.635,1.635A1.635,1.635,0,0,0,9.375,11.152ZM7.823,5.276l.264,4.833a.426.426,0,0,0,.426.4h1.725a.426.426,0,0,0,.426-.4l.264-4.833a.426.426,0,0,0-.426-.45H8.249A.426.426,0,0,0,7.823,5.276Z" transform="translate(-0.563 -0.563)" fill="#a9afbd"/>
</svg>
