<svg xmlns="http://www.w3.org/2000/svg" width="18.625" height="18.625" viewBox="0 0 18.625 18.625">
  <path id="Icon_awesome-exclamation-circle" data-name="Icon awesome-exclamation-circle" d="M18.187,9.375A8.812,8.812,0,1,1,9.375.563,8.812,8.812,0,0,1,18.187,9.375ZM9.3,11.553a1.635,1.635,0,1,0,1.635,1.635A1.635,1.635,0,0,0,9.3,11.553ZM7.784,4.54l.264,4.833a.426.426,0,0,0,.426.4H10.2a.426.426,0,0,0,.426-.4l.264-4.833a.426.426,0,0,0-.426-.45H8.21A.426.426,0,0,0,7.784,4.54Z" transform="translate(-0.063 -0.063)" fill="none" stroke="#a9afbd" stroke-width="1"/>
</svg>
