<svg xmlns="http://www.w3.org/2000/svg" width="99.932" height="39.327" viewBox="0 0 99.932 39.327">
  <defs>
    <style>
      .jar-1 {
        fill: #996f46;
      }

      .jar-1, .jar-2 {
        stroke: #231815;
        stroke-miterlimit: 10;
        stroke-width: 2px;
      }

      .jar-2 {
        fill: #d19658;
      }
    </style>
  </defs>
  <g id="jar" transform="translate(1.049 1)">
    <g id="그룹_117" data-name="그룹 117" transform="translate(0 8.608)">
      <path id="패스_119" data-name="패스 119" class="jar-1" d="M630.592,923.157h0c-2.018-5.531-5.659-5.531-5.659-5.531H614.374s-3.641,0-5.662,5.531a.587.587,0,0,0,.381.744h21.121A.579.579,0,0,0,630.592,923.157Z" transform="translate(-605.355 -917.626)"/>
      <path id="패스_120" data-name="패스 120" class="jar-2" d="M628.015,927.826H607.12c-10.4,12.469,3.572,22.444,3.572,22.444h13.752S638.42,940.295,628.015,927.826Z" transform="translate(-603.271 -921.552)"/>
    </g>
    <g id="그룹_118" data-name="그룹 118" transform="translate(69.239 8.608)">
      <path id="패스_121" data-name="패스 121" class="jar-1" d="M743.148,923.157h0c-2.021-5.531-5.658-5.531-5.658-5.531H726.928s-3.636,0-5.659,5.531a.587.587,0,0,0,.381.744h21.12A.581.581,0,0,0,743.148,923.157Z" transform="translate(-717.911 -917.626)"/>
      <path id="패스_122" data-name="패스 122" class="jar-2" d="M740.573,927.826H719.679c-10.4,12.469,3.57,22.444,3.57,22.444H737S750.974,940.295,740.573,927.826Z" transform="translate(-715.828 -921.552)"/>
    </g>
    <g id="그룹_119" data-name="그룹 119" transform="translate(29.737)">
      <path id="패스_123" data-name="패스 123" class="jar-1" d="M687.127,910.817h0c-2.626-7.185-7.354-7.185-7.354-7.185h-13.73s-4.729,0-7.359,7.185a.763.763,0,0,0,.493.967h27.46A.753.753,0,0,0,687.127,910.817Z" transform="translate(-654.321 -903.632)"/>
      <path id="패스_124" data-name="패스 124" class="jar-2" d="M683.78,916.883H656.617c-13.522,16.206,4.642,29.176,4.642,29.176h17.877S697.3,933.089,683.78,916.883Z" transform="translate(-651.613 -908.732)"/>
    </g>
  </g>
</svg>
