<svg id="tree_leftback" xmlns="http://www.w3.org/2000/svg" width="193.557" height="245.767" viewBox="0 0 193.557 245.767">
  <defs>
    <style>
      .mainTreeLeftBackCls-1 {
        opacity: 0.42;
      }

      .mainTreeLeftCls-2 {
        fill: #c7a177;
      }

      .mainTreeLeftBackCls-3 {
        fill: #116645;
      }

      .mainTreeLeftBackCls-4 {
        fill: #3a8065;
      }
    </style>
  </defs>
  <g id="그룹_228" data-name="그룹 228" class="mainTreeLeftBackCls-1" transform="matrix(0.94, 0.342, -0.342, 0.94, 73.555, 0)">
    <g id="그룹_193" data-name="그룹 193" transform="translate(49.576 71.487)">
      <path id="패스_216" data-name="패스 216" class="mainTreeLeftCls-2" d="M6.38,143.572,0,141.521V67.361c0-22.113,1.13-39.1,15.786-56.224A143.5,143.5,0,0,1,26.591.3l1.98.051L33.5,0,30.053,3.315A150.238,150.238,0,0,0,19.25,14.1C5.586,30.08,4.563,45.564,4.563,67.361Z"/>
    </g>
    <g id="그룹_194" data-name="그룹 194" transform="translate(95.317 29.533)">
      <path id="패스_217" data-name="패스 217" class="mainTreeLeftCls-2" d="M3.338,24.185,0,21.959C4.981,14.488,6.7,7.579,5.263.839L9.186,0C10.865,7.855,8.952,15.765,3.338,24.185Z"/>
    </g>
    <g id="그룹_195" data-name="그룹 195" transform="translate(32.881 42.455)">
      <path id="패스_218" data-name="패스 218" class="mainTreeLeftCls-2" d="M25.42,52.814c-2.343-5.513-6.243-10.95-10.374-16.707C7.2,25.168-.923,13.857.085,0l4,.292C3.184,12.7,10.871,23.41,18.305,33.769c4.263,5.942,8.291,11.553,10.807,17.476Z"/>
    </g>
    <g id="그룹_196" data-name="그룹 196" transform="translate(23.26 68.748)">
      <path id="패스_219" data-name="패스 219" class="mainTreeLeftCls-2" d="M26.508,10.348c-9.579,0-18.623-.146-26.508-7.4L2.715,0C9.464,6.205,17.372,6.337,26.5,6.337h.61v4.012Z"/>
    </g>
    <g id="그룹_197" data-name="그룹 197" transform="translate(66.041 45.102)">
      <path id="패스_220" data-name="패스 220" class="mainTreeLeftBackCls-3" d="M36.5,12.025h-.018a5.9,5.9,0,0,0,.114-1.15A6.477,6.477,0,0,0,25.882,5.951a10.131,10.131,0,0,0-19.36,4.19c0,.1.03.194.03.292a7.6,7.6,0,0,0-1,14.839C29.459,23.739,35.426,14.238,36.5,12.025Z"/>
      <path id="패스_221" data-name="패스 221" class="mainTreeLeftBackCls-4" d="M34.584,0A7.159,7.159,0,0,0,30.95,1.011C29.873,3.224,23.905,12.729,0,14.259a7.361,7.361,0,0,0,2.089.329c.154,0,.3-.034.456-.047a4.194,4.194,0,0,0,.446.047H34.526l.032,0,.026,0A7.294,7.294,0,0,0,34.584,0Z" transform="translate(5.554 12.837)"/>
    </g>
    <g id="그룹_198" data-name="그룹 198" transform="translate(0 50.426)">
      <path id="패스_222" data-name="패스 222" class="mainTreeLeftBackCls-4" d="M28.862,9.506l-.029.013a4.61,4.61,0,0,0,.1-.919,5.119,5.119,0,0,0-8.472-3.888A8.006,8.006,0,0,0,5.159,8.02c0,.085.016.151.021.229a6.005,6.005,0,0,0-.788,11.733C23.289,18.772,28.008,11.261,28.862,9.506Z"/>
      <path id="패스_223" data-name="패스 223" class="mainTreeLeftBackCls-3" d="M27.331,0A5.7,5.7,0,0,0,24.47.794C23.617,2.548,18.9,10.061,0,11.274a6.044,6.044,0,0,0,1.645.257c.125,0,.247-.035.371-.042a3.107,3.107,0,0,0,.345.042H27.288l.021,0,.023,0A5.765,5.765,0,1,0,27.331,0Z" transform="translate(4.392 10.536)"/>
    </g>
    <g id="그룹_199" data-name="그룹 199" transform="translate(14.769 20.395)">
      <path id="패스_224" data-name="패스 224" class="mainTreeLeftBackCls-3" d="M.083,10.592l0,.01A8.515,8.515,0,0,1,0,9.586,5.7,5.7,0,0,1,9.443,5.252,8.931,8.931,0,0,1,26.511,8.944c0,.079-.031.162-.034.25a6.7,6.7,0,0,1,.884,13.081C6.288,20.918,1.025,12.551.083,10.592Z" transform="translate(9.544)"/>
      <path id="패스_225" data-name="패스 225" class="mainTreeLeftBackCls-4" d="M6.42,0A6.368,6.368,0,0,1,9.628.891c.942,1.958,6.205,10.326,27.278,11.68a6.749,6.749,0,0,1-1.836.284c-.14,0-.282-.031-.409-.037-.136.013-.262.037-.4.037H6.42A6.427,6.427,0,0,1,6.42,0Z" transform="translate(0 11.529)"/>
    </g>
    <g id="그룹_200" data-name="그룹 200" transform="translate(70.319)">
      <path id="패스_226" data-name="패스 226" class="mainTreeLeftBackCls-4" d="M44.167,14.544a.111.111,0,0,0-.022.011,8.666,8.666,0,0,0,.132-1.394A7.836,7.836,0,0,0,31.314,7.2,12.262,12.262,0,0,0,7.882,12.272c0,.122.034.231.043.35a9.194,9.194,0,0,0-1.21,17.96C35.637,28.727,42.867,17.229,44.167,14.544Z"/>
      <path id="패스_227" data-name="패스 227" class="mainTreeLeftBackCls-3" d="M41.846,0a8.712,8.712,0,0,0-4.4,1.215C36.152,3.9,28.921,15.4,0,17.254a9.1,9.1,0,0,0,2.521.392c.188,0,.375-.043.558-.059a3.509,3.509,0,0,0,.539.059H41.779a.13.13,0,0,1,.032-.006l.024.006A8.823,8.823,0,1,0,41.846,0Z" transform="translate(6.715 15.152)"/>
    </g>
    <g id="그룹_201" data-name="그룹 201" transform="translate(53.27 93.722)">
      <path id="패스_228" data-name="패스 228" class="mainTreeLeftCls-2" d="M8.941,21.309A23.012,23.012,0,0,1,0,19.534l1.754-4.212C15.82,21.192,29.6,13.185,37.427,1.467L44.78,0C38.063,10.064,23.605,21.309,8.941,21.309Z"/>
    </g>
    <g id="그룹_202" data-name="그룹 202" transform="translate(78.839 74.397)">
      <path id="패스_229" data-name="패스 229" class="mainTreeLeftBackCls-4" d="M27.91,9.19l-.021.01a4.607,4.607,0,0,0,.091-.884,4.975,4.975,0,0,0-4.974-4.971,4.922,4.922,0,0,0-3.222,1.21,7.742,7.742,0,0,0-14.8,3.2c0,.075.016.148.016.22a5.81,5.81,0,0,0-.762,11.348C22.522,18.153,27.089,10.891,27.91,9.19Z"/>
      <path id="패스_230" data-name="패스 230" class="mainTreeLeftBackCls-3" d="M26.447,0a5.445,5.445,0,0,0-2.778.769C22.848,2.466,18.281,9.729,0,10.9a5.86,5.86,0,0,0,1.6.247c.116,0,.234-.027.348-.037a2.451,2.451,0,0,0,.342.037H26.4l.029,0,.019,0a5.575,5.575,0,1,0,0-11.15Z" transform="translate(4.241 10.249)"/>
    </g>
  </g>
</svg>
