<svg id="tree_rightback" xmlns="http://www.w3.org/2000/svg" width="155.376" height="187.837" viewBox="0 0 155.376 187.837">
  <defs>
    <style>
      .mainTreeRightBackCls-1 {
        opacity: 0.46;
      }

      .mainTreeRightBackCls-2 {
        fill: #c7a177;
      }

      .mainTreeRightBackCls-3 {
        fill: #116645;
      }

      .mainTreeRightBackCls-4 {
        fill: #3a8065;
      }
    </style>
  </defs>
  <g id="그룹_229" data-name="그룹 229" class="mainTreeRightBackCls-1" transform="translate(0 33.033) rotate(-17)">
    <g id="그룹_216" data-name="그룹 216" transform="translate(39.483 63.247)">
      <path id="패스_246" data-name="패스 246" class="mainTreeRightBackCls-2" d="M25.6,98.629h4.036V59.6c0-19.567-1-34.589-13.965-49.744A126.944,126.944,0,0,0,6.114.268L4.363.312,0,0,3.052,2.933A132.81,132.81,0,0,1,12.61,12.48C24.7,26.614,25.6,40.313,25.6,59.6Z"/>
    </g>
    <g id="그룹_217" data-name="그룹 217" transform="translate(20.306 26.195)">
      <path id="패스_247" data-name="패스 247" class="mainTreeRightBackCls-2" d="M5.643,21.17C.724,13.792-.955,6.867.512,0L3.4.617C2.111,6.665,3.649,12.851,8.1,19.53Z"/>
    </g>
    <g id="그룹_218" data-name="그룹 218" transform="translate(58.41 37.586)">
      <path id="패스_248" data-name="패스 248" class="mainTreeRightBackCls-2" d="M2.721,46.586,0,45.43c2.212-5.208,5.766-10.16,9.53-15.4C16.138,20.819,22.971,11.3,22.162.215L25.112,0C26,12.152,18.847,22.115,11.931,31.75,8.267,36.857,4.806,41.68,2.721,46.586Z"/>
    </g>
    <g id="그룹_219" data-name="그룹 219" transform="translate(68.42 61.044)">
      <path id="패스_249" data-name="패스 249" class="mainTreeRightBackCls-2" d="M.484,8.642H0V5.686C8.408,5.7,15.6,5.69,21.784,0l2,2.176C16.881,8.524,8.916,8.642.484,8.642Z"/>
    </g>
    <g id="그룹_220" data-name="그룹 220" transform="translate(12.595 39.904)">
      <path id="패스_250" data-name="패스 250" class="mainTreeRightBackCls-3" d="M.086,10.641l.015,0A5.257,5.257,0,0,1,0,9.624,5.732,5.732,0,0,1,9.481,5.267,8.962,8.962,0,0,1,26.609,8.977c0,.087-.026.169-.026.259a6.717,6.717,0,0,1,.884,13.124C6.319,21,1.038,12.6.086,10.641Z" transform="translate(9.581)"/>
      <path id="패스_251" data-name="패스 251" class="mainTreeRightBackCls-4" d="M6.45,0A6.314,6.314,0,0,1,9.667.9C10.619,2.854,15.9,11.26,37.048,12.617a6.619,6.619,0,0,1-1.849.29c-.136,0-.264-.031-.4-.04-.127.012-.263.04-.393.04H6.5l-.028,0-.024,0A6.453,6.453,0,0,1,6.45,0Z" transform="translate(0 11.359)"/>
    </g>
    <g id="그룹_221" data-name="그룹 221" transform="translate(79.814 44.618)">
      <path id="패스_252" data-name="패스 252" class="mainTreeRightBackCls-4" d="M.063,8.409l.024.009A4.182,4.182,0,0,1,0,7.607,4.529,4.529,0,0,1,7.495,4.165,7.083,7.083,0,0,1,21.033,7.1c0,.073-.013.134-.018.2a5.313,5.313,0,0,1,.7,10.38C4.994,16.607.818,9.961.063,8.409Z" transform="translate(7.572)"/>
      <path id="패스_253" data-name="패스 253" class="mainTreeRightBackCls-3" d="M5.1,0A5.023,5.023,0,0,1,7.635.7c.755,1.552,4.932,8.2,21.649,9.272a5.3,5.3,0,0,1-1.453.226c-.112,0-.219-.03-.328-.037a2.67,2.67,0,0,1-.307.037H5.142l-.018,0-.021,0A5.1,5.1,0,1,1,5.1,0Z" transform="translate(0 9.322)"/>
    </g>
    <g id="그룹_222" data-name="그룹 222" transform="translate(62.937 18.048)">
      <path id="패스_254" data-name="패스 254" class="mainTreeRightBackCls-3" d="M28.465,9.374l-.008.006a7.539,7.539,0,0,0,.08-.9,5.049,5.049,0,0,0-8.356-3.836,7.9,7.9,0,0,0-15.1,3.269c0,.07.027.143.03.22a5.924,5.924,0,0,0-.783,11.573C22.973,18.506,27.629,11.1,28.465,9.374Z"/>
      <path id="패스_255" data-name="패스 255" class="mainTreeRightBackCls-4" d="M26.972,0a5.6,5.6,0,0,0-2.835.79C23.3,2.52,18.645,9.921,0,11.12a5.921,5.921,0,0,0,1.626.252c.122,0,.25-.027.361-.034a3.25,3.25,0,0,0,.352.034H26.972A5.686,5.686,0,0,0,26.972,0Z" transform="translate(4.329 10.2)"/>
    </g>
    <g id="그룹_223" data-name="그룹 223">
      <path id="패스_256" data-name="패스 256" class="mainTreeRightBackCls-4" d="M.1,12.87l.018.012A7.708,7.708,0,0,1,0,11.646a6.931,6.931,0,0,1,11.47-5.27A10.847,10.847,0,0,1,32.2,10.861c0,.109-.03.206-.038.31a8.134,8.134,0,0,1,1.069,15.89C7.645,25.418,1.246,15.247.1,12.87Z" transform="translate(11.598)"/>
      <path id="패스_257" data-name="패스 257" class="mainTreeRightBackCls-3" d="M7.807,0A7.683,7.683,0,0,1,11.7,1.077c1.147,2.373,7.546,12.545,33.132,14.19a8.175,8.175,0,0,1-2.23.344c-.166,0-.33-.039-.494-.051a3.493,3.493,0,0,1-.476.051H7.865a.072.072,0,0,0-.027-.007l-.021.007A7.805,7.805,0,1,1,7.807,0Z" transform="translate(0 13.41)"/>
    </g>
    <g id="그룹_224" data-name="그룹 224" transform="translate(26.237 82.92)">
      <path id="패스_258" data-name="패스 258" class="mainTreeRightBackCls-2" d="M31.71,18.852a20.358,20.358,0,0,0,7.91-1.57l-1.552-3.727C25.621,18.748,13.428,11.665,6.505,1.3L0,0C5.944,8.9,18.736,18.852,31.71,18.852Z"/>
    </g>
    <g id="그룹_225" data-name="그룹 225" transform="translate(11.15 65.825)">
      <path id="패스_259" data-name="패스 259" class="mainTreeRightBackCls-4" d="M.063,8.129l.017.009A4.165,4.165,0,0,1,0,7.358a4.4,4.4,0,0,1,4.4-4.4A4.348,4.348,0,0,1,7.249,4.029,6.851,6.851,0,0,1,20.344,6.861c0,.066-.017.134-.017.2A5.139,5.139,0,0,1,21,17.1C4.83,16.059.789,9.634.063,8.129Z" transform="translate(7.328)"/>
      <path id="패스_260" data-name="패스 260" class="mainTreeRightBackCls-3" d="M4.932,0A4.845,4.845,0,0,1,7.391.68c.726,1.505,4.767,7.93,20.942,8.967a5.165,5.165,0,0,1-1.419.219c-.1,0-.208-.022-.306-.032a2.682,2.682,0,0,1-.3.032H4.977l-.027,0-.018,0A4.933,4.933,0,0,1,4.932,0Z" transform="translate(0 9.065)"/>
    </g>
  </g>
</svg>
