<svg id="tree_front" xmlns="http://www.w3.org/2000/svg" width="146.115" height="141.293" viewBox="0 0 146.115 141.293">
  <defs>
    <style>
      .mainTreeFrontCls-1 {
        fill: #c7a177;
      }

      .mainTreeFrontCls-2 {
        fill: #3a8065;
      }

      .mainTreeFrontCls-3 {
        fill: #116645;
      }
    </style>
  </defs>
  <g id="그룹_192" data-name="그룹 192" transform="translate(38.359 0) rotate(21)">
    <g id="그룹_182" data-name="그룹 182" transform="translate(17.682 48.195)">
      <path id="패스_201" data-name="패스 201" class="mainTreeFrontCls-1" d="M3.928,58.844C-.6,50.7-1.253,41.527,2.174,34.3c2.919-6.149,8.734-8.823,13.954-10.849q4.005-1.543,7.984-3.115c5.837-2.311,10.285-4.139,14.42-5.924,1.177-.51,2.418-1.03,3.7-1.564C49.959,9.618,58.722,5.958,63.5,0l3.274,2.625c-5.446,6.792-15.14,10.842-22.926,14.1-1.262.527-2.486,1.039-3.649,1.542-4.179,1.806-8.664,3.649-14.543,5.975q-3.993,1.584-8.014,3.128C12.779,29.253,8.224,31.341,5.965,36.1c-2.848,6-2.237,13.744,1.63,20.705Z"/>
    </g>
    <g id="그룹_183" data-name="그룹 183" transform="translate(58.03 18.478)">
      <path id="패스_202" data-name="패스 202" class="mainTreeFrontCls-1" d="M2.93,46.065l-2.93-3c6.358-6.208,9.59-12.913,9.605-19.928C9.627,11.649,1.054,3.075.967,2.989L3.911,0c.4.4,9.917,9.915,9.89,23.142C13.784,31.326,10.125,39.04,2.93,46.065Z"/>
    </g>
    <g id="그룹_184" data-name="그룹 184" transform="translate(16.326 45.23)">
      <path id="패스_203" data-name="패스 203" class="mainTreeFrontCls-1" d="M25.115,27.8a2.1,2.1,0,0,1-2.042-2.588c.139-.6,2.96-14.237-21.54-21.092A2.1,2.1,0,0,1,2.664.076C31.288,8.087,27.194,26.023,27.149,26.2A2.1,2.1,0,0,1,25.115,27.8Z"/>
    </g>
    <g id="그룹_185" data-name="그룹 185" transform="translate(40.308)">
      <path id="패스_204" data-name="패스 204" class="mainTreeFrontCls-2" d="M.07,8.877l.017.01A4.651,4.651,0,0,1,0,8.034a4.8,4.8,0,0,1,4.8-4.8A4.754,4.754,0,0,1,7.913,4.4a7.481,7.481,0,0,1,14.3,3.095c0,.072-.018.138-.022.21a5.613,5.613,0,0,1,.735,10.965C5.27,17.534.863,10.516.07,8.877Z" transform="translate(7.999)"/>
      <path id="패스_205" data-name="패스 205" class="mainTreeFrontCls-3" d="M5.386,0A5.358,5.358,0,0,1,8.069.74c.792,1.636,5.2,8.653,22.854,9.788a5.526,5.526,0,0,1-1.539.24c-.114,0-.225-.027-.337-.037a2.719,2.719,0,0,1-.327.037H5.426l-.014,0-.02,0A5.384,5.384,0,1,1,5.386,0Z" transform="translate(0 9.952)"/>
    </g>
    <g id="그룹_186" data-name="그룹 186" transform="translate(73.209 30.678)">
      <path id="패스_206" data-name="패스 206" class="mainTreeFrontCls-2" d="M.082,10.7a.041.041,0,0,0,.022.01A5.314,5.314,0,0,1,0,9.681,5.792,5.792,0,0,1,5.789,3.889,5.717,5.717,0,0,1,9.536,5.3,9.016,9.016,0,0,1,26.768,9.028c0,.089-.023.168-.025.257A6.764,6.764,0,0,1,27.63,22.5C6.353,21.13,1.036,12.67.082,10.7Z" transform="translate(9.642)"/>
      <path id="패스_207" data-name="패스 207" class="mainTreeFrontCls-3" d="M6.489,0A6.448,6.448,0,0,1,9.724.893c.953,1.975,6.27,10.432,27.548,11.8a6.871,6.871,0,0,1-1.86.289c-.138,0-.269-.037-.406-.047a3.156,3.156,0,0,1-.4.047H6.542l-.017,0a.073.073,0,0,0-.025,0A6.491,6.491,0,1,1,6.489,0Z" transform="translate(0 11.617)"/>
    </g>
    <g id="그룹_187" data-name="그룹 187" transform="translate(0 24.67)">
      <path id="패스_208" data-name="패스 208" class="mainTreeFrontCls-3" d="M.082,10.342l.02.013A5.564,5.564,0,0,1,9.219,5.124,8.718,8.718,0,0,1,25.88,8.731c0,.081-.022.163-.022.248a6.536,6.536,0,0,1,.858,12.77C6.144,20.425,1.007,12.253.082,10.342Z" transform="translate(9.318)"/>
      <path id="패스_209" data-name="패스 209" class="mainTreeFrontCls-2" d="M6.274,0A6.213,6.213,0,0,1,9.4.864c.925,1.912,6.062,10.083,26.633,11.408a6.632,6.632,0,0,1-1.792.279c-.136,0-.269-.032-.4-.042a2.937,2.937,0,0,1-.384.042H6.322a.065.065,0,0,0-.022-.007l-.027.007A6.275,6.275,0,0,1,6.274,0Z" transform="translate(0 11.293)"/>
    </g>
    <g id="그룹_188" data-name="그룹 188" transform="translate(69.008 29.644)">
      <path id="패스_210" data-name="패스 210" class="mainTreeFrontCls-1" d="M.936,14.638,0,10.547C10.657,8.1,9.681.943,9.635.639L13.783,0C13.8.114,15.355,11.332.936,14.638Z"/>
    </g>
    <g id="그룹_189" data-name="그룹 189" transform="translate(67.907 16.679)">
      <path id="패스_211" data-name="패스 211" class="mainTreeFrontCls-3" d="M.047,5.889l.01.007A3.171,3.171,0,0,1,5.25,2.917a4.96,4.96,0,0,1,9.479,2.053c0,.049-.013.094-.015.143a3.72,3.72,0,0,1,.49,7.269C3.5,11.626.572,6.975.047,5.889Z" transform="translate(5.302)"/>
      <path id="패스_212" data-name="패스 212" class="mainTreeFrontCls-2" d="M3.57,0A3.538,3.538,0,0,1,5.349.5C5.874,1.581,8.8,6.232,20.506,6.984a3.653,3.653,0,0,1-1.019.159c-.079,0-.151-.015-.228-.022a1.956,1.956,0,0,1-.218.022H3.6l-.013,0-.012,0A3.572,3.572,0,0,1,3.57,0Z" transform="translate(0 6.302)"/>
    </g>
    <g id="그룹_190" data-name="그룹 190" transform="translate(54.178 49.741)">
      <path id="패스_213" data-name="패스 213" class="mainTreeFrontCls-1" d="M6.514,13.991a5.826,5.826,0,0,1-4.092-2.15C-.638,8.157.035.824.122,0L4.3.436C4.043,2.878,4.189,7.4,5.653,9.164a1.614,1.614,0,0,0,1.2.645Z"/>
    </g>
    <g id="그룹_191" data-name="그룹 191" transform="translate(44.266 38.887)">
      <path id="패스_214" data-name="패스 214" class="mainTreeFrontCls-2" d="M.037,5.124l.008,0A2.914,2.914,0,0,1,0,4.639a2.755,2.755,0,0,1,4.567-2.1,4.317,4.317,0,0,1,8.252,1.786c0,.037-.008.079-.01.121a3.239,3.239,0,0,1,.426,6.327C3.041,10.122.5,6.07.037,5.124Z" transform="translate(5.386)"/>
      <path id="패스_215" data-name="패스 215" class="mainTreeFrontCls-3" d="M3.1,0A3.093,3.093,0,0,1,4.654.43c.46.947,3.006,5,13.2,5.651a3.3,3.3,0,0,1-.891.138c-.065,0-.131-.017-.2-.018s-.121.018-.186.018H3.1A3.109,3.109,0,0,1,3.1,0Z" transform="translate(0 5.235)"/>
    </g>
  </g>
</svg>
