<svg xmlns="http://www.w3.org/2000/svg" id="prefix__man" width="106.71" height="230.7" viewBox="0 0 106.71 230.7">
    <defs>
        <style>
            .man-1{fill:#303b57}.man-2{fill:#f54132}.man-3{fill:#313131}
        </style>
    </defs>
    <g id="prefix__그룹_42" data-name="그룹 42" transform="translate(31.733 9.11)">
        <g id="prefix__그룹_40" data-name="그룹 40" transform="translate(17.066)">
            <path id="prefix__패스_22" d="M2888.7 3144.879c0-.034.022-.064.022-.1h-.036l-3.344-24h-11.13l-3.344 24h-.036c0 .034.02.065.022.1l-.022.155h.056c.292 2.134 4.138 3.83 8.887 3.83s8.6-1.7 8.89-3.83h.056z" class="man-1" data-name="패스 22" transform="translate(-2870.829 -3120.785)"/>
        </g>
        <g id="prefix__그룹_41" data-name="그룹 41" transform="translate(0 25.231)">
            <path id="prefix__패스_23" d="M2898.514 3133.306c10.471.411 17.965 1.519 17.965 2.817 0 1.65-12.114 2.989-27.057 2.989s-27.055-1.339-27.055-2.989c0-1.311 7.617-2.424 18.22-2.827" class="man-1" data-name="패스 23" transform="translate(-2862.368 -3133.296)"/>
        </g>
    </g>
    <g id="prefix__그룹_43" data-name="그룹 43" transform="translate(37.12 190.677)">
        <path id="prefix__패스_24" d="M2865.038 3210.817l4.046 38.008h7.589v-38.008z" class="man-2" data-name="패스 24" transform="translate(-2865.038 -3210.817)"/>
    </g>
    <g id="prefix__그룹_44" data-name="그룹 44" transform="translate(67.585 190.677)">
        <path id="prefix__패스_25" d="M2893.313 3210.817l-4.065 38.008h-9.1l2.489-38.008z" class="man-2" data-name="패스 25" transform="translate(-2880.145 -3210.817)"/>
    </g>
    <g id="prefix__그룹_45" data-name="그룹 45" transform="translate(41.313)">
        <path id="prefix__패스_26" d="M2871.111 3148.467l-3.994-.558 4.167-29.9 2-1.738h6.863v4.033h-5.108z" class="man-3" data-name="패스 26" transform="translate(-2867.117 -3116.268)"/>
    </g>
    <g id="prefix__그룹_46" data-name="그룹 46" transform="translate(54.34)">
        <path id="prefix__패스_27" d="M2882.61 3148.467l-3.925-28.166h-5.109v-4.033h6.863l2 1.738 4.167 29.9z" class="man-3" data-name="패스 27" transform="translate(-2873.577 -3116.268)"/>
    </g>
    <g id="prefix__그룹_47" data-name="그룹 47" transform="translate(41.573 30.608)">
        <path id="prefix__패스_28" d="M2880.011 3138.368c-6.344 0-12.765-2.378-12.765-6.923h4.034c0 .839 3.059 2.889 8.731 2.889s8.735-2.051 8.735-2.889h4.033c0 4.545-6.423 6.923-12.768 6.923z" class="man-3" data-name="패스 28" transform="translate(-2867.246 -3131.445)"/>
    </g>
    <g id="prefix__그룹_48" data-name="그룹 48" transform="translate(18.988 28.861)">
        <path id="prefix__패스_29" d="M2891.4 3144.158c-10.628 0-35.35-.676-35.35-6.926 0-1.48 0-5.414 24.365-6.653l.2 4.027c-10.438.531-16.672 1.7-19.346 2.628 3.648 1.269 13.716 2.89 30.127 2.89s26.478-1.621 30.127-2.888c-2.646-.918-8.781-2.074-19.027-2.613l.209-4.028c24.045 1.263 24.045 5.167 24.045 6.637.002 6.25-24.722 6.926-35.35 6.926z" class="man-3" data-name="패스 29" transform="translate(-2856.047 -3130.58)"/>
    </g>
    <g id="prefix__그룹_49" data-name="그룹 49" transform="translate(37.564 38.89)">
        <path id="prefix__패스_30" d="M2882.033 3162.455a16.8 16.8 0 0 1-16.775-16.775 16.623 16.623 0 0 1 3.4-10.128l3.215 2.437a12.625 12.625 0 0 0-2.583 7.691 12.742 12.742 0 1 0 22.9-7.691l3.215-2.437a16.775 16.775 0 0 1-13.375 26.9z" class="man-3" data-name="패스 30" transform="translate(-2865.258 -3135.552)"/>
    </g>
    <g id="prefix__그룹_50" data-name="그룹 50" transform="translate(45.867 65.7)">
        <path id="prefix__패스_31" d="M2872.227 3158.775l-2.852-2.852 7.078-7.077h2.852l7.077 7.077-2.852 2.852-5.651-5.651z" class="man-3" data-name="패스 31" transform="translate(-2869.375 -3148.846)"/>
    </g>
    <g id="prefix__그룹_51" data-name="그룹 51" transform="translate(46.427 66.716)">
        <path id="prefix__패스_32" d="M2873.6 3178.94l-3.949-.82 5.969-28.77 3.961.064 5.012 28.77-3.974.692-3.2-18.357z" class="man-3" data-name="패스 32" transform="translate(-2869.653 -3149.35)"/>
    </g>
    <g id="prefix__그룹_52" data-name="그룹 52" transform="translate(52.818 73.465)">
        <path id="prefix__패스_33" d="M2915.525 3271.4h-42.7v-4.034h40.3l-16.521-93.54.109-1.089 7.892-20.038 3.753 1.477-7.683 19.509 16.841 95.347z" class="man-3" data-name="패스 33" transform="translate(-2872.822 -3152.696)"/>
    </g>
    <g id="prefix__그룹_53" data-name="그룹 53" transform="translate(50.801 78.038)">
        <path id="prefix__사각형_122" d="M0 0H4.033V112.111H0z" class="man-3" data-name="사각형 122"/>
    </g>
    <g id="prefix__그룹_54" data-name="그룹 54" transform="translate(42.802 100.447)">
        <path id="prefix__패스_34" d="M2871.889 3205.628h-4.034v-37.536l2.017-2.017h19.1v4.033h-17.087z" class="man-3" data-name="패스 34" transform="translate(-2867.855 -3166.076)"/>
    </g>
    <g id="prefix__그룹_55" data-name="그룹 55" transform="translate(64.706 62.809)">
        <path id="prefix__패스_35" d="M2899.366 3220.426l-1.562-3.719 18.476-7.764-17.408-48.656-20.155-9.206 1.676-3.669 20.93 9.56 1.06 1.154 18.339 51.257-1.118 2.538z" class="man-3" data-name="패스 35" transform="translate(-2878.717 -3147.413)"/>
    </g>
    <g id="prefix__그룹_56" data-name="그룹 56" transform="translate(9.203 73.465)">
        <path id="prefix__패스_36" d="M2895.884 3271.4h-42.7l-1.986-2.367 16.84-95.347-7.684-19.509 3.753-1.477 7.891 20.038.11 1.089-16.522 93.54h40.3z" class="man-3" data-name="패스 36" transform="translate(-2851.196 -3152.696)"/>
    </g>
    <g id="prefix__그룹_57" data-name="그룹 57" transform="translate(0 62.809)">
        <path id="prefix__패스_37" d="M2867.987 3220.426l-20.238-8.5-1.117-2.538 18.338-51.257 1.061-1.154 20.93-9.56 1.676 3.669-20.156 9.206-17.408 48.656 18.476 7.764z" class="man-3" data-name="패스 37" transform="translate(-2846.632 -3147.413)"/>
    </g>
    <g id="prefix__그룹_58" data-name="그룹 58" transform="translate(28.18 188.132)">
        <path id="prefix__패스_38" d="M2881.182 3252.124h-12.845l-2-1.719-5.736-38.537 1.995-2.313h18.582l2.017 2.016v38.536zm-11.106-4.034h9.089v-34.5h-14.226z" class="man-3" data-name="패스 38" transform="translate(-2860.605 -3209.555)"/>
    </g>
    <g id="prefix__그룹_59" data-name="그룹 59" transform="translate(60.611 188.132)">
        <path id="prefix__패스_39" d="M2891.547 3252.124H2878.7l-2.016-2.017v-38.536l2.016-2.016h18.582l1.995 2.313-5.738 38.537zm-10.828-4.034h9.09l5.137-34.5h-14.226z" class="man-3" data-name="패스 39" transform="translate(-2876.686 -3209.555)"/>
    </g>
</svg>
