<svg xmlns="http://www.w3.org/2000/svg" xmlns:xlink="http://www.w3.org/1999/xlink" width="337.457" height="150.707" viewBox="0 0 337.457 150.707">
  <defs>
    <style>
      .scenery-1 {
        fill: #ffbfb2;
        isolation: isolate;
      }

      .scenery-2 {
        fill: url(#linear-gradient);
      }

      .scenery-3 {
        fill: #fff;
        stroke: #a2bcce;
        stroke-miterlimit: 10;
        stroke-width: 2px;
      }
    </style>
    <linearGradient id="linear-gradient" x1="0.5" y1="1" x2="0.5" gradientUnits="objectBoundingBox">
      <stop offset="0" stop-color="#a2b38b" stop-opacity="0"/>
      <stop offset="1" stop-color="#a2b38b"/>
    </linearGradient>
  </defs>
  <g id="Scenery" transform="translate(0 1)">
    <circle id="타원_9" data-name="타원 9" class="scenery-1" cx="42.466" cy="42.466" r="42.466" transform="translate(0 7.573)"/>
    <path id="패스_54" data-name="패스 54" class="scenery-2" d="M1503.056,256.362l15.883-15.883a14.281,14.281,0,0,1,20.2,0l15.883,15.883Z" transform="translate(-1494.843 -106.655)"/>
    <path id="패스_55" data-name="패스 55" class="scenery-2" d="M1753.3,305.942l34.564-34.564a31.079,31.079,0,0,1,43.951,0l34.565,34.564Z" transform="translate(-1550.746 -176.386)"/>
    <path id="패스_56" data-name="패스 56" class="scenery-2" d="M1889.95,270.8a7.71,7.71,0,0,0-10.9,0l-2.709,2.71a3.715,3.715,0,0,1-5.255,0l-2.709-2.71a7.71,7.71,0,0,0-10.9,0l-8.575,8.575h49.631Z" transform="translate(-1561.068 -178.491)"/>
    <path id="패스_57" data-name="패스 57" class="scenery-3" d="M1616.261,258.031h0a3.147,3.147,0,0,1,3.147-3.147h3.522a3.34,3.34,0,0,0,3.34-3.34h0a3.339,3.339,0,0,0-3.34-3.34h-22.79a3.147,3.147,0,0,1-3.147-3.147h0a3.147,3.147,0,0,1,3.147-3.147h31.574a3.816,3.816,0,0,0,3.815-3.816h0a3.815,3.815,0,0,0-3.815-3.816h-78.575a3.816,3.816,0,0,0-3.815,3.816h0a3.816,3.816,0,0,0,3.815,3.816h21.69a3.147,3.147,0,0,1,3.147,3.147h0a3.148,3.148,0,0,1-3.147,3.147h-12.906a3.339,3.339,0,0,0-3.34,3.34h0a3.34,3.34,0,0,0,3.34,3.34H1602.1a3.147,3.147,0,0,1,3.147,3.147h0a3.147,3.147,0,0,1-3.147,3.146H1501.489a3.34,3.34,0,0,0-3.34,3.34h0a3.341,3.341,0,0,0,3.34,3.341h156.349a3.341,3.341,0,0,0,3.34-3.341h0a3.34,3.34,0,0,0-3.34-3.34h-38.43A3.147,3.147,0,0,1,1616.261,258.031Z" transform="translate(-1474.194 -174.976)"/>
    <path id="패스_58" data-name="패스 58" class="scenery-3" d="M1831.037,113.822h0a3.2,3.2,0,0,1,3.2-3.2h1.246a3.916,3.916,0,0,0,3.916-3.916h0a3.916,3.916,0,0,0-3.916-3.916h-57.932a3.915,3.915,0,0,0-3.916,3.916h0a3.915,3.915,0,0,0,3.916,3.916h36.753a3.2,3.2,0,0,1,3.2,3.2h0a3.2,3.2,0,0,1-3.2,3.2h-6.318a2.848,2.848,0,0,0-2.848,2.848h0a2.848,2.848,0,0,0,2.848,2.848H1865.3a2.848,2.848,0,0,0,2.848-2.848h0a2.848,2.848,0,0,0-2.848-2.848H1834.24A3.2,3.2,0,0,1,1831.037,113.822Z" transform="translate(-1559.478 -102.787)"/>
    <ellipse id="타원_7" data-name="타원 7" class="scenery-3" cx="2.788" cy="2.788" rx="2.788" ry="2.788" transform="translate(316.055 14.357)"/>
    <ellipse id="타원_8" data-name="타원 8" class="scenery-3" cx="3.602" cy="3.602" rx="3.602" ry="3.602" transform="translate(61.517 59.696)"/>
    <rect id="사각형_177" data-name="사각형 177" class="scenery-3" width="97.402" height="6.356" rx="3.178" transform="translate(172.457 25.647)"/>
  </g>
</svg>
