<svg id="shop_pale" xmlns="http://www.w3.org/2000/svg" width="306.579" height="193.651" viewBox="0 0 306.579 193.651">
  <defs>
    <style>
      .shopPale-1 {
        opacity: 0.34;
      }

      .shopPale-2 {
        fill: #e3e3e3;
      }

      .shopPale-3 {
        fill: #cc8a3f;
      }

      .shopPale-4 {
        fill: #9b6c30;
      }

      .shopPale-5 {
        fill: #ededed;
      }

      .shopPale-6 {
        fill: #fff;
      }

      .shopPale-7 {
        fill: #2e3342;
      }

      .shopPale-8 {
        fill: #4d5669;
      }

      .shopPale-9 {
        fill: #424859;
      }

      .shopPale-10 {
        fill: #5f687d;
      }
    </style>
  </defs>
  <g id="기와집" class="shopPale-1" transform="translate(-695.76 -335.301)">
    <rect id="사각형_227" data-name="사각형 227" class="shopPale-2" width="227.988" height="108.775" transform="translate(735.056 406.946)"/>
    <rect id="사각형_228" data-name="사각형 228" class="shopPale-3" width="240.104" height="6.573" transform="translate(725.965 406.413)"/>
    <rect id="사각형_229" data-name="사각형 229" class="shopPale-3" width="240.109" height="9.856" transform="translate(726.232 422.409)"/>
    <rect id="사각형_230" data-name="사각형 230" class="shopPale-3" width="240.653" height="13.14" transform="translate(725.965 508.753)"/>
    <g id="그룹_126" data-name="그룹 126" transform="translate(721.818 406.946)">
      <g id="그룹_123" data-name="그룹 123" transform="translate(0 0.001)">
        <path id="패스_125" data-name="패스 125" class="shopPale-4" d="M728.692,481.6a2.207,2.207,0,0,1-2.2,2.206H708.328a2.208,2.208,0,0,1-2.206-2.206V364.018a2.213,2.213,0,0,1,2.206-2.211h18.162a2.212,2.212,0,0,1,2.2,2.211Z" transform="translate(-704.171 -361.807)"/>
        <rect id="사각형_231" data-name="사각형 231" class="shopPale-5" width="26.473" height="26.471" transform="translate(0 95.534)"/>
      </g>
      <g id="그룹_124" data-name="그룹 124" transform="translate(113.909)">
        <path id="사각형_232" data-name="사각형 232" class="shopPale-4" d="M.816,0H21.745a.816.816,0,0,1,.816.816V121.187a.818.818,0,0,1-.818.818H.814A.814.814,0,0,1,0,121.191V.816A.816.816,0,0,1,.816,0Z" transform="translate(1.954)"/>
        <rect id="사각형_233" data-name="사각형 233" class="shopPale-5" width="26.471" height="26.471" transform="translate(0 95.535)"/>
      </g>
      <g id="그룹_125" data-name="그룹 125" transform="translate(227.99 0.001)">
        <path id="패스_126" data-name="패스 126" class="shopPale-4" d="M813.032,481.6a2.208,2.208,0,0,1-2.206,2.206H792.67a2.2,2.2,0,0,1-2.2-2.206V364.018a2.2,2.2,0,0,1,2.2-2.211h18.156a2.213,2.213,0,0,1,2.206,2.211Z" transform="translate(-788.516 -361.807)"/>
        <rect id="사각형_234" data-name="사각형 234" class="shopPale-5" width="26.465" height="26.471" transform="translate(0 95.534)"/>
      </g>
    </g>
    <g id="그룹_148" data-name="그룹 148" transform="translate(755.118 440.929)">
      <g id="그룹_127" data-name="그룹 127">
        <rect id="사각형_235" data-name="사각형 235" class="shopPale-6" width="70.537" height="54.477" transform="translate(1.351 1.351)"/>
        <path id="패스_127" data-name="패스 127" class="shopPale-3" d="M790.958,431.559H717.72v-57.18h73.238Zm-70.535-2.7h67.832V377.082H720.423Z" transform="translate(-717.72 -374.379)"/>
      </g>
      <g id="그룹_137" data-name="그룹 137" transform="translate(6.033 5.844)">
        <g id="그룹_128" data-name="그룹 128">
          <path id="패스_128" data-name="패스 128" class="shopPale-3" d="M749.658,420.57H719.952V376.541h29.706Zm-27-2.7h24.3V379.244h-24.3Z" transform="translate(-719.952 -376.541)"/>
        </g>
        <g id="그룹_129" data-name="그룹 129" transform="translate(13.494 1.352)">
          <rect id="사각형_236" data-name="사각형 236" class="shopPale-3" width="2.703" height="41.327"/>
        </g>
        <g id="그룹_130" data-name="그룹 130" transform="translate(6.758 1.352)">
          <rect id="사각형_237" data-name="사각형 237" class="shopPale-3" width="2.703" height="41.327"/>
        </g>
        <g id="그룹_131" data-name="그룹 131" transform="translate(20.246 1.352)">
          <rect id="사각형_238" data-name="사각형 238" class="shopPale-3" width="2.703" height="41.327"/>
        </g>
        <g id="그룹_132" data-name="그룹 132" transform="translate(1.352 7.164)">
          <rect id="사각형_239" data-name="사각형 239" class="shopPale-3" width="27.004" height="2.703"/>
        </g>
        <g id="그룹_133" data-name="그룹 133" transform="translate(1.352 13.996)">
          <rect id="사각형_240" data-name="사각형 240" class="shopPale-3" width="27.004" height="2.703"/>
        </g>
        <g id="그룹_134" data-name="그룹 134" transform="translate(1.352 20.822)">
          <rect id="사각형_241" data-name="사각형 241" class="shopPale-3" width="27.004" height="2.703"/>
        </g>
        <g id="그룹_135" data-name="그룹 135" transform="translate(1.352 27.658)">
          <rect id="사각형_242" data-name="사각형 242" class="shopPale-3" width="27.004" height="2.703"/>
        </g>
        <g id="그룹_136" data-name="그룹 136" transform="translate(1.352 34.485)">
          <rect id="사각형_243" data-name="사각형 243" class="shopPale-3" width="27.004" height="2.703"/>
        </g>
      </g>
      <g id="그룹_147" data-name="그룹 147" transform="translate(37.804 5.844)">
        <g id="그룹_138" data-name="그룹 138">
          <path id="패스_129" data-name="패스 129" class="shopPale-3" d="M761.407,420.57h-29.7V376.541h29.7Zm-27-2.7H758.7V379.244H734.409Z" transform="translate(-731.706 -376.541)"/>
        </g>
        <g id="그룹_139" data-name="그룹 139" transform="translate(13.505 1.352)">
          <rect id="사각형_244" data-name="사각형 244" class="shopPale-3" width="2.703" height="41.327"/>
        </g>
        <g id="그룹_140" data-name="그룹 140" transform="translate(6.752 1.352)">
          <rect id="사각형_245" data-name="사각형 245" class="shopPale-3" width="2.703" height="41.327"/>
        </g>
        <g id="그룹_141" data-name="그룹 141" transform="translate(20.257 1.352)">
          <rect id="사각형_246" data-name="사각형 246" class="shopPale-3" width="2.703" height="41.327"/>
        </g>
        <g id="그룹_142" data-name="그룹 142" transform="translate(1.352 7.164)">
          <rect id="사각형_247" data-name="사각형 247" class="shopPale-3" width="26.999" height="2.703"/>
        </g>
        <g id="그룹_143" data-name="그룹 143" transform="translate(1.352 13.996)">
          <rect id="사각형_248" data-name="사각형 248" class="shopPale-3" width="26.999" height="2.703"/>
        </g>
        <g id="그룹_144" data-name="그룹 144" transform="translate(1.352 20.822)">
          <rect id="사각형_249" data-name="사각형 249" class="shopPale-3" width="26.999" height="2.703"/>
        </g>
        <g id="그룹_145" data-name="그룹 145" transform="translate(1.352 27.658)">
          <rect id="사각형_250" data-name="사각형 250" class="shopPale-3" width="26.999" height="2.703"/>
        </g>
        <g id="그룹_146" data-name="그룹 146" transform="translate(1.352 34.485)">
          <rect id="사각형_251" data-name="사각형 251" class="shopPale-3" width="26.999" height="2.703"/>
        </g>
      </g>
    </g>
    <g id="그룹_170" data-name="그룹 170" transform="translate(869.867 440.929)">
      <g id="그룹_149" data-name="그룹 149">
        <rect id="사각형_252" data-name="사각형 252" class="shopPale-6" width="70.537" height="54.477" transform="translate(1.351 1.351)"/>
        <path id="패스_130" data-name="패스 130" class="shopPale-3" d="M833.41,431.559H760.172v-57.18H833.41Zm-70.535-2.7h67.832V377.082H762.875Z" transform="translate(-760.172 -374.379)"/>
      </g>
      <g id="그룹_159" data-name="그룹 159" transform="translate(6.03 5.844)">
        <g id="그룹_150" data-name="그룹 150">
          <path id="패스_131" data-name="패스 131" class="shopPale-3" d="M792.109,420.57H762.4V376.541h29.706Zm-27-2.7h24.3V379.244h-24.3Z" transform="translate(-762.403 -376.541)"/>
        </g>
        <g id="그룹_151" data-name="그룹 151" transform="translate(13.5 1.352)">
          <rect id="사각형_253" data-name="사각형 253" class="shopPale-3" width="2.703" height="41.327"/>
        </g>
        <g id="그룹_152" data-name="그룹 152" transform="translate(6.748 1.352)">
          <rect id="사각형_254" data-name="사각형 254" class="shopPale-3" width="2.703" height="41.327"/>
        </g>
        <g id="그룹_153" data-name="그룹 153" transform="translate(20.252 1.352)">
          <rect id="사각형_255" data-name="사각형 255" class="shopPale-3" width="2.703" height="41.327"/>
        </g>
        <g id="그룹_154" data-name="그룹 154" transform="translate(1.352 7.164)">
          <rect id="사각형_256" data-name="사각형 256" class="shopPale-3" width="27.004" height="2.703"/>
        </g>
        <g id="그룹_155" data-name="그룹 155" transform="translate(1.352 13.996)">
          <rect id="사각형_257" data-name="사각형 257" class="shopPale-3" width="27.004" height="2.703"/>
        </g>
        <g id="그룹_156" data-name="그룹 156" transform="translate(1.352 20.822)">
          <rect id="사각형_258" data-name="사각형 258" class="shopPale-3" width="27.004" height="2.703"/>
        </g>
        <g id="그룹_157" data-name="그룹 157" transform="translate(1.352 27.658)">
          <rect id="사각형_259" data-name="사각형 259" class="shopPale-3" width="27.004" height="2.703"/>
        </g>
        <g id="그룹_158" data-name="그룹 158" transform="translate(1.352 34.485)">
          <rect id="사각형_260" data-name="사각형 260" class="shopPale-3" width="27.004" height="2.703"/>
        </g>
      </g>
      <g id="그룹_169" data-name="그룹 169" transform="translate(37.802 5.844)">
        <g id="그룹_160" data-name="그룹 160">
          <path id="패스_132" data-name="패스 132" class="shopPale-3" d="M803.863,420.57H774.157V376.541h29.706Zm-27-2.7h24.3V379.244h-24.3Z" transform="translate(-774.157 -376.541)"/>
        </g>
        <g id="그룹_161" data-name="그룹 161" transform="translate(13.505 1.352)">
          <rect id="사각형_261" data-name="사각형 261" class="shopPale-3" width="2.703" height="41.327"/>
        </g>
        <g id="그룹_162" data-name="그룹 162" transform="translate(6.753 1.352)">
          <rect id="사각형_262" data-name="사각형 262" class="shopPale-3" width="2.703" height="41.327"/>
        </g>
        <g id="그룹_163" data-name="그룹 163" transform="translate(20.252 1.352)">
          <rect id="사각형_263" data-name="사각형 263" class="shopPale-3" width="2.703" height="41.327"/>
        </g>
        <g id="그룹_164" data-name="그룹 164" transform="translate(1.352 7.164)">
          <rect id="사각형_264" data-name="사각형 264" class="shopPale-3" width="27.004" height="2.703"/>
        </g>
        <g id="그룹_165" data-name="그룹 165" transform="translate(1.352 13.996)">
          <rect id="사각형_265" data-name="사각형 265" class="shopPale-3" width="27.004" height="2.703"/>
        </g>
        <g id="그룹_166" data-name="그룹 166" transform="translate(1.352 20.822)">
          <rect id="사각형_266" data-name="사각형 266" class="shopPale-3" width="27.004" height="2.703"/>
        </g>
        <g id="그룹_167" data-name="그룹 167" transform="translate(1.352 27.658)">
          <rect id="사각형_267" data-name="사각형 267" class="shopPale-3" width="27.004" height="2.703"/>
        </g>
        <g id="그룹_168" data-name="그룹 168" transform="translate(1.352 34.485)">
          <rect id="사각형_268" data-name="사각형 268" class="shopPale-3" width="27.004" height="2.703"/>
        </g>
      </g>
    </g>
    <g id="그룹_171" data-name="그룹 171" transform="translate(695.76 349.765)">
      <path id="패스_133" data-name="패스 133" class="shopPale-7" d="M706.954,395.485s7.631,8.436,23.251.438h10.469s14.994,7.3,26.392-.438l12.134.622s7.512,6.509,22.949-.095h12.71s8.639,6.625,22.338.376h14.531s8.874,6.339,21.221-.281h13.877s9.49,7.139,21.784.089h14.423a20.929,20.929,0,0,0,20.773.192h15.715s10.12,6.428,20.408-.192L987,394.556l-24.149-53.9H726.61l-27.519,49.517Z" transform="translate(-690.087 -340.652)"/>
      <path id="패스_134" data-name="패스 134" class="shopPale-8" d="M702.138,360.5s9.52,8.574,20,0v3.811s-10.336,5.849-20,0Z" transform="translate(-684.898 -306.857)"/>
      <path id="패스_135" data-name="패스 135" class="shopPale-8" d="M705.206,354.563s9.2,8.271,19.31,0v3.679s-9.977,5.644-19.31,0Z" transform="translate(-679.673 -316.961)"/>
      <path id="패스_136" data-name="패스 136" class="shopPale-8" d="M707.809,349.5s8.579,7.725,18.018,0v3.427s-9.312,5.274-18.018,0Z" transform="translate(-675.24 -325.591)"/>
      <path id="패스_137" data-name="패스 137" class="shopPale-8" d="M710.113,345.029s8.085,7.282,16.986,0v3.238s-8.785,4.968-16.986,0Z" transform="translate(-671.317 -333.198)"/>
      <path id="패스_138" data-name="패스 138" class="shopPale-8" d="M717.987,354.713s8.574,7.728,18.013,0v3.441s-9.312,5.271-18.013,0Z" transform="translate(-657.907 -316.706)"/>
      <path id="패스_139" data-name="패스 139" class="shopPale-8" d="M719.773,349.5s8.577,7.725,18.01,0v3.427s-9.312,5.274-18.01,0Z" transform="translate(-654.865 -325.591)"/>
      <path id="패스_140" data-name="패스 140" class="shopPale-8" d="M721.53,345.025s8.1,7.293,17.018,0v3.249s-8.8,4.971-17.018,0Z" transform="translate(-651.873 -333.205)"/>
      <path id="패스_141" data-name="패스 141" class="shopPale-8" d="M730.556,354.713s8.577,7.728,18.007,0v3.441s-9.309,5.271-18.007,0Z" transform="translate(-636.502 -316.706)"/>
      <path id="패스_142" data-name="패스 142" class="shopPale-8" d="M731.8,349.5s8.585,7.725,18.013,0v3.427s-9.306,5.274-18.013,0Z" transform="translate(-634.39 -325.591)"/>
      <path id="패스_143" data-name="패스 143" class="shopPale-8" d="M733.011,345.176s7.49,6.752,15.737,0v3s-8.142,4.6-15.737,0Z" transform="translate(-632.321 -332.948)"/>
      <path id="패스_144" data-name="패스 144" class="shopPale-8" d="M743.074,354.713s8.577,7.728,18.016,0v3.441s-9.315,5.271-18.016,0Z" transform="translate(-615.184 -316.706)"/>
      <path id="패스_145" data-name="패스 145" class="shopPale-8" d="M743.772,349.5s8.577,7.725,18.013,0v3.427s-9.312,5.274-18.013,0Z" transform="translate(-613.995 -325.591)"/>
      <path id="패스_146" data-name="패스 146" class="shopPale-8" d="M744.44,345.176s7.5,6.752,15.745,0v3s-8.142,4.6-15.745,0Z" transform="translate(-612.857 -332.948)"/>
      <path id="패스_147" data-name="패스 147" class="shopPale-8" d="M755.679,354.713s8.582,7.728,18.013,0v3.441s-9.315,5.271-18.013,0Z" transform="translate(-593.717 -316.706)"/>
      <path id="패스_148" data-name="패스 148" class="shopPale-8" d="M755.56,349.5s8.577,7.725,18.015,0v3.427s-9.312,5.274-18.015,0Z" transform="translate(-593.92 -325.591)"/>
      <path id="패스_149" data-name="패스 149" class="shopPale-8" d="M755.686,345.176s7.5,6.752,15.74,0v3s-8.136,4.6-15.74,0Z" transform="translate(-593.705 -332.948)"/>
      <path id="패스_150" data-name="패스 150" class="shopPale-8" d="M768.261,354.713s8.579,7.728,18.013,0v3.441s-9.315,5.271-18.013,0Z" transform="translate(-572.29 -316.706)"/>
      <path id="패스_151" data-name="패스 151" class="shopPale-8" d="M767.325,349.5s8.584,7.725,18.013,0v3.427s-9.307,5.274-18.013,0Z" transform="translate(-573.884 -325.591)"/>
      <path id="패스_152" data-name="패스 152" class="shopPale-8" d="M767.179,345.176s7.493,6.752,15.737,0v3s-8.136,4.6-15.737,0Z" transform="translate(-574.132 -332.948)"/>
      <path id="패스_153" data-name="패스 153" class="shopPale-8" d="M780.833,354.713s8.582,7.728,18.018,0v3.441s-9.307,5.271-18.018,0Z" transform="translate(-550.879 -316.706)"/>
      <path id="패스_154" data-name="패스 154" class="shopPale-8" d="M779.356,349.5s8.579,7.725,18.007,0v3.427s-9.307,5.274-18.007,0Z" transform="translate(-553.395 -325.591)"/>
      <path id="패스_155" data-name="패스 155" class="shopPale-8" d="M778.36,345.078s7.888,7.1,16.561,0v3.163s-8.566,4.841-16.561,0Z" transform="translate(-555.091 -333.114)"/>
      <path id="패스_156" data-name="패스 156" class="shopPale-8" d="M793.575,354.713s8.574,7.728,18.007,0v3.441s-9.309,5.271-18.007,0Z" transform="translate(-529.18 -316.706)"/>
      <path id="패스_157" data-name="패스 157" class="shopPale-8" d="M791.278,349.5s8.585,7.725,18.018,0v3.427s-9.312,5.274-18.018,0Z" transform="translate(-533.091 -325.591)"/>
      <path id="패스_158" data-name="패스 158" class="shopPale-8" d="M789.577,345.027s8.093,7.287,17,0v3.244s-8.79,4.968-17,0Z" transform="translate(-535.988 -333.201)"/>
      <path id="패스_159" data-name="패스 159" class="shopPale-8" d="M715.934,360.535s9.009,8.109,18.926,0v3.6s-9.793,5.544-18.926,0Z" transform="translate(-661.403 -306.791)"/>
      <path id="패스_160" data-name="패스 160" class="shopPale-8" d="M729.255,360.58s8.82,7.942,18.534,0v3.533s-9.59,5.417-18.534,0Z" transform="translate(-638.718 -306.714)"/>
      <path id="패스_161" data-name="패스 161" class="shopPale-8" d="M742.573,360.594s8.779,7.893,18.432,0V364.1s-9.523,5.39-18.432,0Z" transform="translate(-616.037 -306.69)"/>
      <path id="패스_162" data-name="패스 162" class="shopPale-8" d="M755.9,360.574s8.866,7.968,18.6,0v3.544s-9.617,5.433-18.6,0Z" transform="translate(-593.349 -306.725)"/>
      <path id="패스_163" data-name="패스 163" class="shopPale-8" d="M768.991,360.5s9.128,8.22,19.17,0v3.649s-9.909,5.611-19.17,0Z" transform="translate(-571.046 -306.844)"/>
      <path id="패스_164" data-name="패스 164" class="shopPale-8" d="M782.393,360.6s8.955,8.055,18.8,0v3.579s-9.723,5.5-18.8,0Z" transform="translate(-548.223 -306.687)"/>
      <path id="패스_165" data-name="패스 165" class="shopPale-8" d="M795.712,360.594s8.958,8.06,18.816,0v3.584s-9.728,5.5-18.816,0Z" transform="translate(-525.54 -306.69)"/>
      <path id="패스_166" data-name="패스 166" class="shopPale-9" d="M726.548,395.576l19.84-53.918H731.7l-21.994,49Z" transform="translate(-672.016 -338.938)"/>
      <path id="패스_167" data-name="패스 167" class="shopPale-9" d="M740.015,395.576l13.235-53.918h-14.7l-15.611,49.52Z" transform="translate(-649.478 -338.938)"/>
      <path id="패스_168" data-name="패스 168" class="shopPale-9" d="M753.576,395.576l6.62-53.918H745.5l-9.386,50.529Z" transform="translate(-627.039 -338.938)"/>
      <path id="패스_169" data-name="패스 169" class="shopPale-9" d="M767.238,395.576V341.658h-14.7l-3.307,53.918Z" transform="translate(-604.691 -338.938)"/>
      <path id="패스_170" data-name="패스 170" class="shopPale-9" d="M782.646,395.576l-6.615-53.918h-14.7l3.307,53.918Z" transform="translate(-584.088 -338.938)"/>
      <path id="패스_171" data-name="패스 171" class="shopPale-9" d="M799.743,392.847,786.9,341.658h-14.7l10.01,55.285Z" transform="translate(-565.571 -338.938)"/>
      <path id="패스_172" data-name="패스 172" class="shopPale-9" d="M817.057,392.07l-19.28-50.412h-14.7l16.946,57.212Z" transform="translate(-547.054 -338.938)"/>
      <path id="패스_173" data-name="패스 173" class="shopPale-9" d="M834.234,391.273l-25.581-49.615h-14.7l23.654,57.212Z" transform="translate(-528.536 -338.938)"/>
      <path id="패스_174" data-name="패스 174" class="shopPale-10" d="M727.279,367.92c0,5.538-4.038,10.028-9,10.028s-9-4.49-9-10.028,4.033-10.023,9-10.023S727.279,362.389,727.279,367.92Z" transform="translate(-672.749 -311.284)"/>
      <path id="패스_175" data-name="패스 175" class="shopPale-10" d="M740.6,367.92c0,5.538-4.027,10.028-9,10.028s-9-4.49-9-10.028,4.03-10.023,9-10.023S740.6,362.389,740.6,367.92Z" transform="translate(-650.061 -311.284)"/>
      <path id="패스_176" data-name="패스 176" class="shopPale-10" d="M753.914,367.92c0,5.538-4.027,10.028-8.993,10.028s-9.006-4.49-9.006-10.028,4.03-10.023,9.006-10.023S753.914,362.389,753.914,367.92Z" transform="translate(-627.377 -311.284)"/>
      <ellipse id="타원_11" data-name="타원 11" class="shopPale-10" cx="9.001" cy="10.025" rx="9.001" ry="10.025" transform="translate(144.544 46.612)"/>
      <path id="패스_177" data-name="패스 177" class="shopPale-10" d="M780.562,367.92c0,5.538-4.03,10.028-9,10.028s-9-4.49-9-10.028,4.03-10.023,9-10.023S780.562,362.389,780.562,367.92Z" transform="translate(-582.004 -311.284)"/>
      <path id="패스_178" data-name="패스 178" class="shopPale-10" d="M793.882,367.92c0,5.538-4.033,10.028-9,10.028s-9-4.49-9-10.028,4.036-10.023,9-10.023S793.882,362.389,793.882,367.92Z" transform="translate(-559.32 -311.284)"/>
      <path id="패스_179" data-name="패스 179" class="shopPale-10" d="M807.2,367.92c0,5.538-4.027,10.028-9.006,10.028-4.963,0-8.99-4.49-8.99-10.028s4.027-10.023,8.99-10.023C803.169,357.9,807.2,362.389,807.2,367.92Z" transform="translate(-536.63 -311.284)"/>
      <path id="패스_180" data-name="패스 180" class="shopPale-10" d="M820.525,367.92c0,5.538-4.03,10.028-9,10.028s-9-4.49-9-10.028,4.035-10.023,9-10.023S820.525,362.389,820.525,367.92Z" transform="translate(-513.946 -311.284)"/>
      <path id="패스_181" data-name="패스 181" class="shopPale-9" d="M696.2,388.787l29.089-47.129h14.7l-27.294,54.736Z" transform="translate(-695.007 -338.938)"/>
      <path id="패스_182" data-name="패스 182" class="shopPale-10" d="M713.76,367.261c0,5.53-4.028,10.025-9,10.025s-9-4.5-9-10.025,4.03-10.036,9-10.036S713.76,361.717,713.76,367.261Z" transform="translate(-695.76 -312.428)"/>
    </g>
    <path id="패스_183" data-name="패스 183" class="shopPale-10" d="M959.657,335.3a4.677,4.677,0,0,0-2.787.943v-.019s-2.122,2.168-9.753,3.735H722.506c-7.628-1.568-9.758-3.735-9.758-3.735v.019a4.645,4.645,0,1,0-2.965,8.352v7.887H959.617v-7.871h.04a4.656,4.656,0,1,0,0-9.312Z" transform="translate(16.262)"/>
  </g>
</svg>
