<svg xmlns="http://www.w3.org/2000/svg" width="255.117" height="161.883" viewBox="0 0 255.117 161.883">
  <defs>
    <style>
      .shopPost-1 {
        fill: #e3e3e3;
      }

      .shopPost-2, .shopPost-6 {
        fill: #cc8a3f;
      }

      .shopPost-10, .shopPost-2, .shopPost-3, .shopPost-4, .shopPost-7, .shopPost-8, .shopPost-9 {
        stroke: #231815;
        stroke-miterlimit: 10;
      }

      .shopPost-10, .shopPost-11, .shopPost-2, .shopPost-3, .shopPost-4, .shopPost-7, .shopPost-8, .shopPost-9 {
        stroke-width: 2px;
      }

      .shopPost-3 {
        fill: #9b6c30;
      }

      .shopPost-4 {
        fill: #ededed;
      }

      .shopPost-11, .shopPost-5 {
        fill: #fff;
      }

      .shopPost-7 {
        fill: #2e3342;
      }

      .shopPost-8 {
        fill: #4d5669;
      }

      .shopPost-9 {
        fill: #424859;
      }

      .shopPost-10 {
        fill: #5f687d;
      }

      .shopPost-11, .shopPost-12 {
        stroke: #000;
      }

      .shopPost-12 {
        fill: #e9e6dd;
      }

      .shopPost-13 {
        fill: rgba(247,255,22,0.49);
      }

      .shopPost-14 {
        fill: rgba(21,130,29,0.49);
      }

      .shopPost-15 {
        fill: rgba(252,117,117,0.79);
      }

      .shopPost-16 {
        stroke: none;
      }

      .shopPost-17 {
        fill: none;
      }
    </style>
  </defs>
  <g id="shop_post" transform="translate(1 1)">
    <g id="그룹_116" data-name="그룹 116">
      <rect id="사각형_178" data-name="사각형 178" class="shopPost-1" width="188.231" height="89.807" transform="translate(32.444 59.152)"/>
      <rect id="사각형_179" data-name="사각형 179" class="shopPost-2" width="198.235" height="5.427" transform="translate(24.939 58.712)"/>
      <rect id="사각형_180" data-name="사각형 180" class="shopPost-2" width="198.239" height="8.138" transform="translate(25.159 71.919)"/>
      <rect id="사각형_181" data-name="사각형 181" class="shopPost-2" width="198.688" height="10.849" transform="translate(24.939 143.206)"/>
      <g id="그룹_70" data-name="그룹 70" transform="translate(21.515 59.152)">
        <g id="그룹_67" data-name="그룹 67">
          <path id="패스_59" data-name="패스 59" class="shopPost-3" d="M804.971,846.893a1.822,1.822,0,0,1-1.817,1.822H788.16a1.824,1.824,0,0,1-1.822-1.822V749.812a1.827,1.827,0,0,1,1.822-1.827h14.994a1.825,1.825,0,0,1,1.817,1.827Z" transform="translate(-784.727 -747.985)"/>
          <rect id="사각형_182" data-name="사각형 182" class="shopPost-4" width="21.857" height="21.855" transform="translate(0 78.876)"/>
        </g>
        <g id="그룹_68" data-name="그룹 68" transform="translate(94.046)">
          <path id="패스_60" data-name="패스 60" class="shopPost-3" d="M946.861,846.893a1.819,1.819,0,0,1-1.817,1.822H930.055a1.818,1.818,0,0,1-1.821-1.822V749.812a1.822,1.822,0,0,1,1.821-1.827h14.988a1.822,1.822,0,0,1,1.817,1.827Z" transform="translate(-926.621 -747.985)"/>
          <rect id="사각형_183" data-name="사각형 183" class="shopPost-4" width="21.855" height="21.855" transform="translate(0 78.876)"/>
        </g>
        <g id="그룹_69" data-name="그룹 69" transform="translate(188.234)">
          <path id="패스_61" data-name="패스 61" class="shopPost-3" d="M1088.969,846.893a1.824,1.824,0,0,1-1.822,1.822h-14.99a1.818,1.818,0,0,1-1.817-1.822V749.812a1.821,1.821,0,0,1,1.817-1.827h14.99a1.827,1.827,0,0,1,1.822,1.827Z" transform="translate(-1068.727 -747.985)"/>
          <rect id="사각형_184" data-name="사각형 184" class="shopPost-4" width="21.85" height="21.855" transform="translate(0 78.876)"/>
        </g>
      </g>
      <g id="그룹_92" data-name="그룹 92" transform="translate(49.008 87.209)">
        <g id="그룹_71" data-name="그룹 71">
          <rect id="사각형_185" data-name="사각형 185" class="shopPost-5" width="58.237" height="44.978" transform="translate(1.116 1.116)"/>
          <path id="패스_62" data-name="패스 62" class="shopPost-6" d="M885.856,837.526H825.388V790.317h60.468Zm-58.237-2.232h56V792.549h-56Z" transform="translate(-825.388 -790.317)"/>
        </g>
        <g id="그룹_81" data-name="그룹 81" transform="translate(4.982 4.824)">
          <g id="그룹_72" data-name="그룹 72">
            <path id="패스_63" data-name="패스 63" class="shopPost-6" d="M857.431,833.948H832.9V797.6h24.527Zm-22.3-2.232H855.2V799.828H835.136Z" transform="translate(-832.904 -797.596)"/>
          </g>
          <g id="그룹_73" data-name="그룹 73" transform="translate(11.141 1.116)">
            <rect id="사각형_186" data-name="사각형 186" class="shopPost-6" width="2.232" height="34.12"/>
          </g>
          <g id="그룹_74" data-name="그룹 74" transform="translate(5.579 1.116)">
            <rect id="사각형_187" data-name="사각형 187" class="shopPost-6" width="2.232" height="34.12"/>
          </g>
          <g id="그룹_75" data-name="그룹 75" transform="translate(16.716 1.116)">
            <rect id="사각형_188" data-name="사각형 188" class="shopPost-6" width="2.232" height="34.12"/>
          </g>
          <g id="그룹_76" data-name="그룹 76" transform="translate(1.116 5.915)">
            <rect id="사각형_189" data-name="사각형 189" class="shopPost-6" width="22.295" height="2.232"/>
          </g>
          <g id="그룹_77" data-name="그룹 77" transform="translate(1.116 11.555)">
            <rect id="사각형_190" data-name="사각형 190" class="shopPost-6" width="22.295" height="2.232"/>
          </g>
          <g id="그룹_78" data-name="그룹 78" transform="translate(1.116 17.191)">
            <rect id="사각형_191" data-name="사각형 191" class="shopPost-6" width="22.295" height="2.232"/>
          </g>
          <g id="그룹_79" data-name="그룹 79" transform="translate(1.116 22.836)">
            <rect id="사각형_192" data-name="사각형 192" class="shopPost-6" width="22.295" height="2.232"/>
          </g>
          <g id="그룹_80" data-name="그룹 80" transform="translate(1.116 28.471)">
            <rect id="사각형_193" data-name="사각형 193" class="shopPost-6" width="22.295" height="2.232"/>
          </g>
        </g>
        <g id="그룹_91" data-name="그룹 91" transform="translate(31.212 4.824)">
          <g id="그룹_82" data-name="그룹 82">
            <path id="패스_64" data-name="패스 64" class="shopPost-6" d="M897,833.948H872.48V797.6H897Zm-22.291-2.232h20.059V799.828H874.712Z" transform="translate(-872.48 -797.596)"/>
          </g>
          <g id="그룹_83" data-name="그룹 83" transform="translate(11.15 1.116)">
            <rect id="사각형_194" data-name="사각형 194" class="shopPost-6" width="2.232" height="34.12"/>
          </g>
          <g id="그룹_84" data-name="그룹 84" transform="translate(5.575 1.116)">
            <rect id="사각형_195" data-name="사각형 195" class="shopPost-6" width="2.232" height="34.12"/>
          </g>
          <g id="그룹_85" data-name="그룹 85" transform="translate(16.725 1.116)">
            <rect id="사각형_196" data-name="사각형 196" class="shopPost-6" width="2.232" height="34.12"/>
          </g>
          <g id="그룹_86" data-name="그룹 86" transform="translate(1.116 5.915)">
            <rect id="사각형_197" data-name="사각형 197" class="shopPost-6" width="22.291" height="2.232"/>
          </g>
          <g id="그룹_87" data-name="그룹 87" transform="translate(1.116 11.555)">
            <rect id="사각형_198" data-name="사각형 198" class="shopPost-6" width="22.291" height="2.232"/>
          </g>
          <g id="그룹_88" data-name="그룹 88" transform="translate(1.116 17.191)">
            <rect id="사각형_199" data-name="사각형 199" class="shopPost-6" width="22.291" height="2.232"/>
          </g>
          <g id="그룹_89" data-name="그룹 89" transform="translate(1.116 22.836)">
            <rect id="사각형_200" data-name="사각형 200" class="shopPost-6" width="22.291" height="2.232"/>
          </g>
          <g id="그룹_90" data-name="그룹 90" transform="translate(1.116 28.471)">
            <rect id="사각형_201" data-name="사각형 201" class="shopPost-6" width="22.291" height="2.232"/>
          </g>
        </g>
      </g>
      <g id="그룹_114" data-name="그룹 114" transform="translate(143.747 87.209)">
        <g id="그룹_93" data-name="그룹 93">
          <rect id="사각형_202" data-name="사각형 202" class="shopPost-5" width="58.237" height="44.978" transform="translate(1.116 1.116)"/>
          <path id="패스_65" data-name="패스 65" class="shopPost-6" d="M1028.794,837.526H968.326V790.317h60.468Zm-58.236-2.232h56V792.549h-56Z" transform="translate(-968.326 -790.317)"/>
        </g>
        <g id="그룹_103" data-name="그룹 103" transform="translate(4.98 4.824)">
          <g id="그룹_94" data-name="그룹 94">
            <path id="패스_66" data-name="패스 66" class="shopPost-6" d="M1000.366,833.948H975.839V797.6h24.527Zm-22.3-2.232h20.064V799.828H978.071Z" transform="translate(-975.839 -797.596)"/>
          </g>
          <g id="그룹_95" data-name="그룹 95" transform="translate(11.145 1.116)">
            <rect id="사각형_203" data-name="사각형 203" class="shopPost-6" width="2.232" height="34.12"/>
          </g>
          <g id="그룹_96" data-name="그룹 96" transform="translate(5.571 1.116)">
            <rect id="사각형_204" data-name="사각형 204" class="shopPost-6" width="2.232" height="34.12"/>
          </g>
          <g id="그룹_97" data-name="그룹 97" transform="translate(16.72 1.116)">
            <rect id="사각형_205" data-name="사각형 205" class="shopPost-6" width="2.232" height="34.12"/>
          </g>
          <g id="그룹_98" data-name="그룹 98" transform="translate(1.116 5.915)">
            <rect id="사각형_206" data-name="사각형 206" class="shopPost-6" width="22.295" height="2.232"/>
          </g>
          <g id="그룹_99" data-name="그룹 99" transform="translate(1.116 11.555)">
            <rect id="사각형_207" data-name="사각형 207" class="shopPost-6" width="22.295" height="2.232"/>
          </g>
          <g id="그룹_100" data-name="그룹 100" transform="translate(1.116 17.191)">
            <rect id="사각형_208" data-name="사각형 208" class="shopPost-6" width="22.295" height="2.232"/>
          </g>
          <g id="그룹_101" data-name="그룹 101" transform="translate(1.116 22.836)">
            <rect id="사각형_209" data-name="사각형 209" class="shopPost-6" width="22.295" height="2.232"/>
          </g>
          <g id="그룹_102" data-name="그룹 102" transform="translate(1.116 28.471)">
            <rect id="사각형_210" data-name="사각형 210" class="shopPost-6" width="22.295" height="2.232"/>
          </g>
        </g>
        <g id="그룹_113" data-name="그룹 113" transform="translate(31.21 4.824)">
          <g id="그룹_104" data-name="그룹 104">
            <path id="패스_67" data-name="패스 67" class="shopPost-6" d="M1039.942,833.948h-24.527V797.6h24.527Zm-22.3-2.232h20.063V799.828h-20.063Z" transform="translate(-1015.415 -797.596)"/>
          </g>
          <g id="그룹_105" data-name="그룹 105" transform="translate(11.15 1.116)">
            <rect id="사각형_211" data-name="사각형 211" class="shopPost-6" width="2.232" height="34.12"/>
          </g>
          <g id="그룹_106" data-name="그룹 106" transform="translate(5.575 1.116)">
            <rect id="사각형_212" data-name="사각형 212" class="shopPost-6" width="2.232" height="34.12"/>
          </g>
          <g id="그룹_107" data-name="그룹 107" transform="translate(16.72 1.116)">
            <rect id="사각형_213" data-name="사각형 213" class="shopPost-6" width="2.232" height="34.12"/>
          </g>
          <g id="그룹_108" data-name="그룹 108" transform="translate(1.116 5.915)">
            <rect id="사각형_214" data-name="사각형 214" class="shopPost-6" width="22.295" height="2.232"/>
          </g>
          <g id="그룹_109" data-name="그룹 109" transform="translate(1.116 11.555)">
            <rect id="사각형_215" data-name="사각형 215" class="shopPost-6" width="22.295" height="2.232"/>
          </g>
          <g id="그룹_110" data-name="그룹 110" transform="translate(1.116 17.191)">
            <rect id="사각형_216" data-name="사각형 216" class="shopPost-6" width="22.295" height="2.232"/>
          </g>
          <g id="그룹_111" data-name="그룹 111" transform="translate(1.116 22.836)">
            <rect id="사각형_217" data-name="사각형 217" class="shopPost-6" width="22.295" height="2.232"/>
          </g>
          <g id="그룹_112" data-name="그룹 112" transform="translate(1.116 28.471)">
            <rect id="사각형_218" data-name="사각형 218" class="shopPost-6" width="22.295" height="2.232"/>
          </g>
        </g>
      </g>
      <g id="그룹_115" data-name="그룹 115" transform="translate(0 11.943)">
        <path id="패스_68" data-name="패스 68" class="shopPost-7" d="M769.156,722.028s6.3,6.965,19.2.362H797s12.379,6.028,21.789-.362l10.019.514s6.2,5.374,18.945-.079h10.494s7.133,5.471,18.444.309h12s7.325,5.235,17.52-.231h11.457s7.835,5.893,17.986.074h11.908a17.276,17.276,0,0,0,17.15.156h12.975s8.354,5.309,16.849-.156l5.84-1.356-19.939-44.5H785.385l-22.722,40.88Z" transform="translate(-755.229 -676.758)"/>
        <path id="패스_69" data-name="패스 69" class="shopPost-8" d="M772.922,743.573s7.861,7.079,16.511,0v3.147s-8.534,4.829-16.511,0Z" transform="translate(-758.689 -699.288)"/>
        <path id="패스_70" data-name="패스 70" class="shopPost-8" d="M783.253,723.594s7.594,6.83,15.944,0v3.038s-8.238,4.659-15.944,0Z" transform="translate(-762.172 -692.551)"/>
        <path id="패스_71" data-name="패스 71" class="shopPost-8" d="M792.02,706.535s7.083,6.377,14.876,0v2.829s-7.688,4.355-14.876,0Z" transform="translate(-765.128 -686.799)"/>
        <path id="패스_72" data-name="패스 72" class="shopPost-8" d="M799.776,691.5s6.676,6.011,14.024,0v2.672s-7.252,4.1-14.024,0Z" transform="translate(-767.744 -681.727)"/>
        <path id="패스_73" data-name="패스 73" class="shopPost-8" d="M826.289,724.1s7.078,6.381,14.872,0v2.842s-7.689,4.35-14.872,0Z" transform="translate(-776.684 -692.722)"/>
        <path id="패스_74" data-name="패스 74" class="shopPost-8" d="M832.3,706.535s7.08,6.377,14.869,0v2.829s-7.688,4.355-14.869,0Z" transform="translate(-778.712 -686.799)"/>
        <path id="패스_75" data-name="패스 75" class="shopPost-8" d="M838.218,691.482s6.69,6.02,14.05,0v2.681s-7.264,4.105-14.05,0Z" transform="translate(-780.707 -681.723)"/>
        <path id="패스_76" data-name="패스 76" class="shopPost-8" d="M868.607,724.1s7.083,6.381,14.867,0v2.842s-7.684,4.35-14.867,0Z" transform="translate(-790.954 -692.722)"/>
        <path id="패스_77" data-name="패스 77" class="shopPost-8" d="M872.783,706.535s7.087,6.377,14.872,0v2.829s-7.684,4.355-14.872,0Z" transform="translate(-792.362 -686.799)"/>
        <path id="패스_78" data-name="패스 78" class="shopPost-8" d="M876.873,691.988s6.185,5.575,12.993,0v2.48s-6.721,3.8-12.993,0Z" transform="translate(-793.741 -681.894)"/>
        <path id="패스_79" data-name="패스 79" class="shopPost-8" d="M910.757,724.1s7.081,6.381,14.874,0v2.842s-7.691,4.35-14.874,0Z" transform="translate(-805.167 -692.722)"/>
        <path id="패스_80" data-name="패스 80" class="shopPost-8" d="M913.108,706.535s7.081,6.377,14.872,0v2.829s-7.688,4.355-14.872,0Z" transform="translate(-805.96 -686.799)"/>
        <path id="패스_81" data-name="패스 81" class="shopPost-8" d="M915.357,691.988s6.194,5.575,13,0v2.48s-6.721,3.8-13,0Z" transform="translate(-806.718 -681.894)"/>
        <path id="패스_82" data-name="패스 82" class="shopPost-8" d="M953.2,724.1s7.087,6.381,14.872,0v2.842s-7.688,4.35-14.872,0Z" transform="translate(-819.478 -692.722)"/>
        <path id="패스_83" data-name="패스 83" class="shopPost-8" d="M952.8,706.535s7.081,6.377,14.875,0v2.829s-7.689,4.355-14.875,0Z" transform="translate(-819.344 -686.799)"/>
        <path id="패스_84" data-name="패스 84" class="shopPost-8" d="M953.223,691.988s6.192,5.575,12.993,0v2.48s-6.717,3.8-12.993,0Z" transform="translate(-819.487 -681.894)"/>
        <path id="패스_85" data-name="패스 85" class="shopPost-8" d="M995.561,724.1s7.085,6.381,14.872,0v2.842s-7.689,4.35-14.872,0Z" transform="translate(-833.763 -692.722)"/>
        <path id="패스_86" data-name="패스 86" class="shopPost-8" d="M992.411,706.535s7.087,6.377,14.872,0v2.829s-7.684,4.355-14.872,0Z" transform="translate(-832.701 -686.799)"/>
        <path id="패스_87" data-name="패스 87" class="shopPost-8" d="M991.918,691.988s6.187,5.575,12.993,0v2.48s-6.717,3.8-12.993,0Z" transform="translate(-832.535 -681.894)"/>
        <path id="패스_88" data-name="패스 88" class="shopPost-8" d="M1037.893,724.1s7.085,6.381,14.876,0v2.842s-7.685,4.35-14.876,0Z" transform="translate(-848.038 -692.722)"/>
        <path id="패스_89" data-name="패스 89" class="shopPost-8" d="M1032.921,706.535s7.083,6.377,14.868,0v2.829s-7.685,4.355-14.868,0Z" transform="translate(-846.361 -686.799)"/>
        <path id="패스_90" data-name="패스 90" class="shopPost-8" d="M1029.567,691.659s6.512,5.863,13.673,0v2.611s-7.072,4-13.673,0Z" transform="translate(-845.23 -681.783)"/>
        <path id="패스_91" data-name="패스 91" class="shopPost-8" d="M1080.8,724.1s7.079,6.381,14.868,0v2.842s-7.687,4.35-14.868,0Z" transform="translate(-862.505 -692.722)"/>
        <path id="패스_92" data-name="패스 92" class="shopPost-8" d="M1073.063,706.535s7.087,6.377,14.876,0v2.829s-7.689,4.355-14.876,0Z" transform="translate(-859.897 -686.799)"/>
        <path id="패스_93" data-name="패스 93" class="shopPost-8" d="M1067.335,691.489s6.682,6.015,14.039,0v2.676s-7.257,4.1-14.039,0Z" transform="translate(-857.966 -681.726)"/>
        <path id="패스_94" data-name="패스 94" class="shopPost-8" d="M819.377,743.7s7.436,6.695,15.626,0v2.968s-8.086,4.577-15.626,0Z" transform="translate(-774.353 -699.333)"/>
        <path id="패스_95" data-name="패스 95" class="shopPost-8" d="M864.227,743.855s7.284,6.556,15.3,0v2.916s-7.918,4.472-15.3,0Z" transform="translate(-789.477 -699.383)"/>
        <path id="패스_96" data-name="패스 96" class="shopPost-8" d="M909.07,743.9s7.249,6.516,15.216,0V746.8s-7.861,4.45-15.216,0Z" transform="translate(-804.598 -699.399)"/>
        <path id="패스_97" data-name="패스 97" class="shopPost-8" d="M953.927,743.836s7.319,6.577,15.36,0v2.924s-7.942,4.485-15.36,0Z" transform="translate(-819.724 -699.377)"/>
        <path id="패스_98" data-name="패스 98" class="shopPost-8" d="M998.021,743.6s7.536,6.786,15.826,0v3.012s-8.182,4.634-15.826,0Z" transform="translate(-834.593 -699.297)"/>
        <path id="패스_99" data-name="패스 99" class="shopPost-8" d="M1043.147,743.908s7.392,6.651,15.521,0v2.955s-8.026,4.541-15.521,0Z" transform="translate(-849.809 -699.401)"/>
        <path id="패스_100" data-name="패스 100" class="shopPost-8" d="M1087.991,743.9s7.4,6.655,15.534,0v2.959s-8.03,4.542-15.534,0Z" transform="translate(-864.931 -699.399)"/>
        <path id="패스_101" data-name="패스 101" class="shopPost-9" d="M812.3,724.66l16.38-44.516H816.55L798.392,720.6Z" transform="translate(-767.277 -677.9)"/>
        <path id="패스_102" data-name="패스 102" class="shopPost-9" d="M857.053,724.66l10.927-44.516H855.842l-12.889,40.885Z" transform="translate(-782.303 -677.9)"/>
        <path id="패스_103" data-name="패스 103" class="shopPost-9" d="M901.735,724.66l5.466-44.516H895.066l-7.75,41.717Z" transform="translate(-797.263 -677.9)"/>
        <path id="패스_104" data-name="패스 104" class="shopPost-9" d="M946.365,724.66V680.145H934.233L931.5,724.66Z" transform="translate(-812.162 -677.9)"/>
        <path id="패스_105" data-name="패스 105" class="shopPost-9" d="M989.832,724.66l-5.461-44.516H972.236l2.731,44.516Z" transform="translate(-825.898 -677.9)"/>
        <path id="패스_106" data-name="패스 106" class="shopPost-9" d="M1031.58,722.407l-10.6-42.262h-12.135l8.264,45.645Z" transform="translate(-838.243 -677.9)"/>
        <path id="패스_107" data-name="패스 107" class="shopPost-9" d="M1073.509,721.766l-15.918-41.622h-12.134l13.991,47.235Z" transform="translate(-850.588 -677.9)"/>
        <path id="패스_108" data-name="패스 108" class="shopPost-9" d="M1115.326,721.108l-21.12-40.963h-12.137l19.53,47.235Z" transform="translate(-862.934 -677.9)"/>
        <path id="패스_109" data-name="패스 109" class="shopPost-10" d="M811.813,743.1c0,4.572-3.335,8.277-7.434,8.277s-7.434-3.705-7.434-8.277,3.328-8.277,7.434-8.277S811.813,738.529,811.813,743.1Z" transform="translate(-766.789 -696.337)"/>
        <path id="패스_110" data-name="패스 110" class="shopPost-10" d="M856.664,743.1c0,4.572-3.326,8.277-7.431,8.277s-7.434-3.705-7.434-8.277,3.328-8.277,7.434-8.277S856.664,738.529,856.664,743.1Z" transform="translate(-781.914 -696.337)"/>
        <path id="패스_111" data-name="패스 111" class="shopPost-10" d="M901.51,743.1c0,4.572-3.325,8.277-7.425,8.277s-7.436-3.705-7.436-8.277,3.328-8.277,7.436-8.277S901.51,738.529,901.51,743.1Z" transform="translate(-797.038 -696.337)"/>
        <ellipse id="타원_10" data-name="타원 10" class="shopPost-10" cx="7.432" cy="8.277" rx="7.432" ry="8.277" transform="translate(119.34 38.483)"/>
        <path id="패스_112" data-name="패스 112" class="shopPost-10" d="M991.221,743.1c0,4.572-3.326,8.277-7.432,8.277s-7.434-3.705-7.434-8.277,3.328-8.277,7.434-8.277S991.221,738.529,991.221,743.1Z" transform="translate(-827.287 -696.337)"/>
        <path id="패스_113" data-name="패스 113" class="shopPost-10" d="M1036.071,743.1c0,4.572-3.33,8.277-7.432,8.277s-7.434-3.705-7.434-8.277,3.333-8.277,7.434-8.277S1036.071,738.529,1036.071,743.1Z" transform="translate(-842.411 -696.337)"/>
        <path id="패스_114" data-name="패스 114" class="shopPost-10" d="M1080.925,743.1c0,4.572-3.326,8.277-7.436,8.277s-7.423-3.705-7.423-8.277,3.325-8.277,7.423-8.277S1080.925,738.529,1080.925,743.1Z" transform="translate(-857.538 -696.337)"/>
        <path id="패스_115" data-name="패스 115" class="shopPost-10" d="M1125.779,743.1c0,4.572-3.325,8.277-7.431,8.277s-7.431-3.705-7.431-8.277,3.33-8.277,7.431-8.277S1125.779,738.529,1125.779,743.1Z" transform="translate(-872.661 -696.337)"/>
        <path id="패스_116" data-name="패스 116" class="shopPost-9" d="M752.937,719.055l24.017-38.911h12.135l-22.535,45.191Z" transform="translate(-751.949 -677.9)"/>
        <path id="패스_117" data-name="패스 117" class="shopPost-10" d="M766.308,740.843c0,4.568-3.325,8.277-7.427,8.277s-7.434-3.709-7.434-8.277,3.328-8.286,7.434-8.286S766.308,736.267,766.308,740.843Z" transform="translate(-751.447 -695.574)"/>
      </g>
      <path id="패스_118" data-name="패스 118" class="shopPost-10" d="M993.6,658.739a3.854,3.854,0,0,0-2.3.78s-1.752,1.774-8.051,3.069H797.8c-6.3-1.3-8.055-3.086-8.055-3.086a3.912,3.912,0,0,0-2.295-.763,3.839,3.839,0,0,0-.155,7.676v6.512H993.561v-6.5h.035a3.844,3.844,0,1,0,0-7.688Z" transform="translate(-762.29 -658.739)"/>
    </g>
    <g id="사각형_219" data-name="사각형 219" class="shopPost-11" transform="translate(55.118 32.127)">
      <rect class="shopPost-16" width="143" height="41"/>
      <rect class="shopPost-17" x="1" y="1" width="141" height="39"/>
    </g>
    <path id="패스_264" data-name="패스 264" d="M-35.9-1.848V1.628H-54.912V-1.848H-47.3v-2.64a10.744,10.744,0,0,1-3.63-1.078,6.393,6.393,0,0,1-2.409-2.068,4.881,4.881,0,0,1-.847-2.794,4.881,4.881,0,0,1,1.1-3.135,7.144,7.144,0,0,1,3.1-2.145,12.683,12.683,0,0,1,4.576-.77,12.683,12.683,0,0,1,4.576.77,7.144,7.144,0,0,1,3.1,2.145,4.881,4.881,0,0,1,1.1,3.135,4.881,4.881,0,0,1-.847,2.794,6.393,6.393,0,0,1-2.409,2.068,10.744,10.744,0,0,1-3.63,1.078v2.64Zm-14.344-8.58a1.938,1.938,0,0,0,.616,1.408,4.094,4.094,0,0,0,1.716.957,8.469,8.469,0,0,0,2.508.341A8.469,8.469,0,0,0-42.9-8.063a4.094,4.094,0,0,0,1.716-.957,1.938,1.938,0,0,0,.616-1.408,2.219,2.219,0,0,0-1.342-1.958,7.153,7.153,0,0,0-3.5-.748,7.153,7.153,0,0,0-3.5.748A2.219,2.219,0,0,0-50.248-10.428Zm21.34-2.4h13.244v2.772H-32.6V-16.61h3.7Zm14.168,6.27H-33.748V-9.262H-14.74ZM-15.84-.77H-29v.7h13.354V2.288H-32.626V-2.75H-19.47v-.682h-13.2V-5.764h16.83ZM5.632,2.288H1.914V-16.5H5.632Zm-11.7-18.656a6.209,6.209,0,0,1,3.091.759A5.431,5.431,0,0,1-.858-13.464a6.459,6.459,0,0,1,.77,3.19,6.459,6.459,0,0,1-.77,3.19A5.43,5.43,0,0,1-2.981-4.939a6.209,6.209,0,0,1-3.091.759,6.271,6.271,0,0,1-3.1-.759,5.41,5.41,0,0,1-2.134-2.145,6.459,6.459,0,0,1-.77-3.19,6.459,6.459,0,0,1,.77-3.19,5.41,5.41,0,0,1,2.134-2.145A6.271,6.271,0,0,1-6.072-16.368Zm0,3.322a2.188,2.188,0,0,0-1.76.781,2.978,2.978,0,0,0-.66,1.991,2.968,2.968,0,0,0,.66,2,2.2,2.2,0,0,0,1.76.77,2.188,2.188,0,0,0,1.76-.781,2.978,2.978,0,0,0,.66-1.991,2.978,2.978,0,0,0-.66-1.991A2.188,2.188,0,0,0-6.072-13.046ZM.836.616a8.732,8.732,0,0,1-2.2.583,18.572,18.572,0,0,1-2.816.209h-8.4V-2.068h8.558a19.2,19.2,0,0,0,2.717-.187A8.145,8.145,0,0,0,.836-2.816Zm23.3-11.044A11.832,11.832,0,0,1,20.119-7.4,11.347,11.347,0,0,1,15.18-6.336v-3.5a7.606,7.606,0,0,0,3.531-.88,8.055,8.055,0,0,0,2.86-2.475,7.956,7.956,0,0,0,1.441-3.6l3.784.55a11.569,11.569,0,0,1-.88,2.992l7.766,3.806L31.944-6.314ZM33.748-1.5h-7.59V2.728H22.33V-1.5H14.74V-4.928H33.748Zm22-4.532h-2.2V2.288H49.83V-16.5h3.718v6.864h2.2ZM44.088-1.936a15.6,15.6,0,0,0,2.673-.231,8.939,8.939,0,0,0,2.189-.627v3.3a8.2,8.2,0,0,1-2.211.66,15.9,15.9,0,0,1-2.761.242H36.542V-9.02h7v-3.7H36.5V-16.06H47.234V-5.72h-7v3.784Z" transform="translate(126.118 60.127)"/>
    <g id="사각형_220" data-name="사각형 220" class="shopPost-12" transform="translate(34.118 87.127)">
      <rect class="shopPost-16" width="34" height="42"/>
      <rect class="shopPost-17" x="0.5" y="0.5" width="33" height="41"/>
    </g>
    <g id="사각형_221" data-name="사각형 221" class="shopPost-12" transform="translate(187.118 100.127)">
      <rect class="shopPost-16" width="34" height="42"/>
      <rect class="shopPost-17" x="0.5" y="0.5" width="33" height="41"/>
    </g>
    <g id="사각형_222" data-name="사각형 222" class="shopPost-12" transform="translate(77.118 107.127)">
      <rect class="shopPost-16" width="34" height="42"/>
      <rect class="shopPost-17" x="0.5" y="0.5" width="33" height="41"/>
    </g>
    <path id="패스_265" data-name="패스 265" d="M-1.079-9.75v11.1H-3.237V-1.326H-4.5l.143-2.054h1.118V-5.343H-4.355L-4.5-7.4h1.261V-9.75Zm-7.1.13A2.869,2.869,0,0,1-5.675-8.3a7.074,7.074,0,0,1,.9,3.972,7.074,7.074,0,0,1-.9,3.971,2.869,2.869,0,0,1-2.5,1.32,2.885,2.885,0,0,1-2.509-1.32,7.034,7.034,0,0,1-.91-3.971,7.034,7.034,0,0,1,.91-3.972A2.885,2.885,0,0,1-8.177-9.62Zm0,8.567q1.248,0,1.248-3.276T-8.177-7.605q-1.261,0-1.261,3.276a6.831,6.831,0,0,0,.331,2.522Q-8.775-1.053-8.177-1.053Zm19.552,2.4h-2.2V-9.75h2.2ZM7.462-6.487A8.953,8.953,0,0,1,6.676-2.6,5.866,5.866,0,0,1,4.446-.059a6.305,6.305,0,0,1-3.38.891v-2.08a3.688,3.688,0,0,0,3.068-1.4A6.113,6.113,0,0,0,5.213-6.487v-1H1.066v-2h6.4ZM5.985,15.23H3.51V5.75H5.985ZM-3.84,11.7a4.1,4.1,0,0,1-1.215,1.313,3.333,3.333,0,0,1-1.62.563V11.315a1.721,1.721,0,0,0,1.043-1.058,6.2,6.2,0,0,0,.472-2.2H-6.39V5.9H-2.1V8.06h-.735a9.757,9.757,0,0,1-.2,1.56l1.11,1.395a2.719,2.719,0,0,0,.675-1.163A7.057,7.057,0,0,0-.93,8.06h-.69V5.9H2.73V8.06H1.395a9.174,9.174,0,0,1-.18,1.5l2.25,2.58-1.62,1.335L.405,11.7A4.1,4.1,0,0,1-.81,13.017a3.352,3.352,0,0,1-1.635.563Zm10,4.575v2.28H-5.55V14.1h2.58V16.28Z" transform="translate(51.118 104.127)"/>
    <path id="패스_267" data-name="패스 267" d="M-6.09-4.11a3.573,3.573,0,0,1-1.905-.445,1.434,1.434,0,0,1-.715-1.3,1.434,1.434,0,0,1,.715-1.295A3.573,3.573,0,0,1-6.09-7.59a3.573,3.573,0,0,1,1.9.445A1.434,1.434,0,0,1-3.47-5.85a1.434,1.434,0,0,1-.715,1.3A3.573,3.573,0,0,1-6.09-4.11ZM-2.5-2.28V-7.5H-.81V-.87H-2.5v-.24H-4.7V-2.28ZM-6.09-6.35a1.728,1.728,0,0,0-.725.125.4.4,0,0,0-.265.375.4.4,0,0,0,.265.375,1.728,1.728,0,0,0,.725.125,1.728,1.728,0,0,0,.725-.125A.4.4,0,0,0-5.1-5.85a.4.4,0,0,0-.265-.375A1.728,1.728,0,0,0-6.09-6.35ZM-.69-.37V1.04H-8.45V-1.67h1.36v-.85H-9.13v-1.3H-5.2A9.921,9.921,0,0,0-3.95-3.9a3.6,3.6,0,0,0,.96-.235v1.3a5.974,5.974,0,0,1-2.24.31h-.18v1.29H-6.76v.86Zm5.47-3.5A5.1,5.1,0,0,1,3-2.635,5.759,5.759,0,0,1,.78-2.18V-3.73A3.812,3.812,0,0,0,2.745-4.3,2.9,2.9,0,0,0,3.98-5.76H.93V-7.3H8.69v1.54H5.81a4.482,4.482,0,0,1-.2.6L9.05-3.47,8.28-2.11ZM9.13-.84V.74H.49V-.84H3.96V-2.51h1.7V-.84Zm-15.9,7.522a3.765,3.765,0,0,1-1.277.963,3.61,3.61,0,0,1-1.572.34V6.871a2.42,2.42,0,0,0,1.123-.28,2.563,2.563,0,0,0,.91-.787,2.531,2.531,0,0,0,.458-1.145l1.2.175a3.681,3.681,0,0,1-.28.952L-3.731,7l-.553.994ZM-3.71,9.524H-6.125v1.344H-7.343V9.524H-9.758V8.432H-3.71Zm7-3.6V7.074h-.7v1.82H1.407V4.75H2.59V5.926Zm-3.78.217V5.73H-2.9V4.82H.679V7h-2.4v.42h1.47a5.522,5.522,0,0,0,.78-.052,2.716,2.716,0,0,0,.6-.144v.9a2.56,2.56,0,0,1-.616.154A5.642,5.642,0,0,1-.3,8.327h-2.59V6.143ZM.742,8.775a2.364,2.364,0,0,1-.161.406l2.226.6L2.45,10.805-.133,9.993a3.551,3.551,0,0,1-1.18.549,5.435,5.435,0,0,1-1.431.186V9.664A4.034,4.034,0,0,0-1.69,9.531a2.377,2.377,0,0,0,.829-.389A1.186,1.186,0,0,0-.42,8.537ZM10.024,5.94V7.088h-.7V9.174H8.141V4.75H9.324V5.94ZM7.378,5.779A2.216,2.216,0,0,1,6.923,7.2a2.709,2.709,0,0,1-1.257.858,5.543,5.543,0,0,1-1.852.283V7.3a4.337,4.337,0,0,0,1.229-.171,2,2,0,0,0,.833-.458.943.943,0,0,0,.3-.693V5.842H3.815V4.82H7.378ZM5.25,9.664H9.408v1.064H4.046V8.656h1.2Zm-8.694,6v1.127h-.7V18.04H-5.327V14.75h1.183v.917Zm-4.2,1.2a2.884,2.884,0,0,1-.924.805,2.74,2.74,0,0,1-1.19.336V16.955a1.559,1.559,0,0,0,.822-.347,1.971,1.971,0,0,0,.557-.767,2.772,2.772,0,0,0,.21-1.064l1.19.07a3.381,3.381,0,0,1-.189,1.127L-5.544,17l-.6.854Zm.861,1.253a5.008,5.008,0,0,1,1.96.318,1.063,1.063,0,0,1,.735,1.019,1.063,1.063,0,0,1-.735,1.018,5.008,5.008,0,0,1-1.96.319,5.008,5.008,0,0,1-1.96-.319,1.063,1.063,0,0,1-.735-1.018,1.063,1.063,0,0,1,.735-1.019A5.008,5.008,0,0,1-6.783,18.124Zm0,1.729a4.529,4.529,0,0,0,1.032-.095q.389-.094.389-.3t-.392-.294a4.381,4.381,0,0,0-1.029-.1,4.381,4.381,0,0,0-1.029.1q-.392.1-.392.294t.389.3A4.529,4.529,0,0,0-6.783,19.853Zm8.246-4.13H-2.695V14.75H2.66v1.911h-1.2ZM.6,17.844v.469a3.905,3.905,0,0,1,1.571.364.943.943,0,0,1,.563.868A1,1,0,0,1,2,20.5a5.377,5.377,0,0,1-2,.3,5.377,5.377,0,0,1-2-.3,1,1,0,0,1-.728-.952.943.943,0,0,1,.563-.868,3.905,3.905,0,0,1,1.572-.364v-.469H-3.024v-.959H3.024v.959Zm.875,1.7q0-.175-.4-.266A5.015,5.015,0,0,0,0,19.188a5.015,5.015,0,0,0-1.071.091q-.4.091-.4.266t.4.266A5.006,5.006,0,0,0,0,19.9a5.006,5.006,0,0,0,1.074-.091Q1.47,19.72,1.47,19.545Zm8.022-4.8v3.094H8.309V14.75ZM5.887,16.962a2.894,2.894,0,0,1-.9.648,2.809,2.809,0,0,1-1.145.262V16.843a1.563,1.563,0,0,0,.928-.336,1.39,1.39,0,0,0,.494-.714H3.927V14.82H7.791v.973H6.468q-.014.091-.07.322l1.6.819-.532.875ZM8.33,18.054H9.492v2.674H4.144V18.054H5.306v.392H8.33Zm0,1.736v-.427H5.306v.427Z" transform="translate(204.118 115.127)"/>
    <path id="패스_266" data-name="패스 266" d="M-.7-.944H-2.048V-6H-.7ZM-5.08-5.992a2.57,2.57,0,0,1,1.172.256,1.919,1.919,0,0,1,.792.72,2.012,2.012,0,0,1,.284,1.072,2.027,2.027,0,0,1-.284,1.08,1.892,1.892,0,0,1-.792.716A2.6,2.6,0,0,1-5.08-1.9a2.6,2.6,0,0,1-1.172-.252,1.892,1.892,0,0,1-.792-.716,2.027,2.027,0,0,1-.284-1.08,2.012,2.012,0,0,1,.284-1.072,1.918,1.918,0,0,1,.792-.72A2.57,2.57,0,0,1-5.08-5.992Zm0,1.128a.9.9,0,0,0-.652.244.9.9,0,0,0-.252.676.9.9,0,0,0,.252.676.9.9,0,0,0,.652.244.9.9,0,0,0,.652-.244.9.9,0,0,0,.252-.676.9.9,0,0,0-.252-.676A.9.9,0,0,0-5.08-4.864Zm-.272,4.48H-.6V.832H-6.728V-1.56h1.376ZM6.144.88,3.864-.712,1.544.88l.88-2.648L.136-3.464h2.84L3.864-6.1l.9,2.632h2.8l-2.272,1.7Zm-10.08,4.1V6.208h-.8V7.424H-6.088V4h1.352v.976ZM-6.408,7.04a2.875,2.875,0,0,1-.744.176,7.621,7.621,0,0,1-.992.064h-3V6.256h.616V5.112H-11.1V4.08h4.472V5.112h-.568v1.1a2.942,2.942,0,0,0,.784-.176Zm-2.848-.784h.792V5.112h-.792Zm-.168,3.656h4.76v.92h-6.1V8.848h4.688V8.584h-4.7v-.92h6.04V9.648H-9.424ZM3.456,9.36v1.232H-3.456V9.36H-.688V8.592H-3.072V5.808H1.744V5.344H-3.088V4.16H3.08V6.936H-1.736v.472h4.9V8.592H.688V9.36ZM10.9,4v6.832H9.544v-.424H7.8V9.264H9.544V4ZM6.656,7.456a2.66,2.66,0,0,1-1.092-.212,1.763,1.763,0,0,1-.744-.592,1.5,1.5,0,0,1-.268-.884,1.5,1.5,0,0,1,.268-.884,1.763,1.763,0,0,1,.744-.592A2.66,2.66,0,0,1,6.656,4.08a2.639,2.639,0,0,1,1.084.212,1.763,1.763,0,0,1,.744.592,1.5,1.5,0,0,1,.268.884,1.5,1.5,0,0,1-.268.884,1.763,1.763,0,0,1-.744.592A2.639,2.639,0,0,1,6.656,7.456Zm0-2.312a.946.946,0,0,0-.592.172.568.568,0,0,0,0,.9.946.946,0,0,0,.592.172.929.929,0,0,0,.588-.172.574.574,0,0,0,0-.9A.929.929,0,0,0,6.656,5.144Zm2.5,3.544a4.779,4.779,0,0,1-1.792.248H7.208v1.9H5.856v-1.9H4.24V7.76H7.384a7.936,7.936,0,0,0,1-.06,2.883,2.883,0,0,0,.768-.188ZM-4.512,14v6.832H-5.864v-3.36H-7.3V16.208h1.44V14Zm-3.528.184a14.446,14.446,0,0,1-.192,2.464l1.984,3.136-1.16.72L-8.7,18.344a4.156,4.156,0,0,1-1.048,1.6,2.107,2.107,0,0,1-1.408.568V19.1a1.269,1.269,0,0,0,.912-.7,5.381,5.381,0,0,0,.608-1.748,13.211,13.211,0,0,0,.216-2.52ZM3.144,14v6.832H1.792V14Zm-3.576.16H.9v6.352H-3.152V14.16h1.328v2.008H-.432Zm0,5.112V17.4H-1.824v1.872ZM7.648,16.6a4.526,4.526,0,0,1-1.46,1.284,3.774,3.774,0,0,1-1.812.476V17.08a2.34,2.34,0,0,0,1.292-.4A3.309,3.309,0,0,0,6.7,15.58a4.16,4.16,0,0,0,.544-1.6l1.376.216a5.145,5.145,0,0,1-.376,1.352L11.16,17.3l-.712,1.1ZM4.24,19.328h6.912v1.264H4.24Z" transform="translate(94.118 120.127)"/>
    <rect id="사각형_223" data-name="사각형 223" class="shopPost-13" width="2.812" height="7.029" transform="matrix(0.921, 0.391, -0.391, 0.921, 50.477, 83.063)"/>
    <rect id="사각형_226" data-name="사각형 226" class="shopPost-14" width="2.812" height="7.029" transform="matrix(0.921, 0.391, -0.391, 0.921, 204.519, 96.15)"/>
    <rect id="사각형_224" data-name="사각형 224" class="shopPost-15" width="2.812" height="12.652" transform="matrix(0.695, 0.719, -0.719, 0.695, 111.985, 141.296)"/>
    <rect id="사각형_225" data-name="사각형 225" class="shopPost-15" width="2.812" height="12.652" transform="matrix(0.695, 0.719, -0.719, 0.695, 83.87, 104.746)"/>
  </g>
</svg>
