<svg xmlns="http://www.w3.org/2000/svg" id="prefix__tree_leftback2" width="136.933" height="230.6" viewBox="0 0 136.933 230.6">
    <defs>
        <style>
            .tree_leftback2-2{fill:#c7a177}.tree_leftback2-3{fill:#116645}.tree_leftback2-4{fill:#3a8065}
        </style>
    </defs>
    <g id="prefix__그룹_203" data-name="그룹 203" style="opacity:.42">
        <g id="prefix__그룹_193" data-name="그룹 193" transform="translate(53.158 76.653)">
            <path id="prefix__패스_216" d="M581.717 508.076l-6.842-2.2v-79.518c0-23.711 1.211-41.921 16.927-60.287a153.87 153.87 0 0 1 11.586-11.621l2.123.055 5.289-.377-3.7 3.555a161.1 161.1 0 0 0-11.583 11.567c-14.652 17.132-15.748 33.735-15.748 57.107z" class="tree_leftback2-2" data-name="패스 216" transform="translate(-574.875 -354.129)"/>
        </g>
        <g id="prefix__그룹_194" data-name="그룹 194" transform="translate(102.205 31.667)">
            <path id="prefix__패스_217" d="M606.96 353.915l-3.579-2.386c5.341-8.011 7.187-15.42 5.644-22.646l4.207-.9c1.799 8.422-.252 16.904-6.272 25.932z" class="tree_leftback2-2" data-name="패스 217" transform="translate(-603.381 -327.983)"/>
        </g>
        <g id="prefix__그룹_195" data-name="그룹 195" transform="translate(35.258 45.523)">
            <path id="prefix__패스_218" d="M591.728 392.667c-2.512-5.912-6.695-11.741-11.123-17.914-8.419-11.729-17.123-23.857-16.043-38.716l4.291.313c-.969 13.3 7.275 24.788 15.246 35.9 4.572 6.371 8.89 12.388 11.588 18.739z" class="tree_leftback2-2" data-name="패스 218" transform="translate(-564.471 -336.036)"/>
        </g>
        <g id="prefix__그룹_196" data-name="그룹 196" transform="translate(24.941 73.716)">
            <path id="prefix__패스_219" d="M586.9 363.518c-10.272 0-19.969-.157-28.424-7.93l2.911-3.166c7.237 6.653 15.716 6.794 25.5 6.794h.654v4.3z" class="tree_leftback2-2" data-name="패스 219" transform="translate(-558.475 -352.422)"/>
        </g>
        <g id="prefix__그룹_197" data-name="그룹 197" transform="translate(70.813 48.361)">
            <path id="prefix__패스_220" d="M624.277 350.58h-.019a6.318 6.318 0 0 0 .122-1.234 6.945 6.945 0 0 0-11.492-5.279 10.863 10.863 0 0 0-20.759 4.492c0 .107.033.208.033.313a8.144 8.144 0 0 0-1.072 15.912c25.634-1.644 32.032-11.831 33.187-14.204z" class="tree_leftback2-3" data-name="패스 220" transform="translate(-585.136 -337.686)"/>
            <path id="prefix__패스_221" d="M625.68 345.686a7.676 7.676 0 0 0-3.9 1.084c-1.155 2.373-7.553 12.565-33.186 14.2a7.893 7.893 0 0 0 2.24.353c.165 0 .32-.036.489-.05a4.5 4.5 0 0 0 .478.05h33.876a7.821 7.821 0 0 0 0-15.642z" class="tree_leftback2-4" data-name="패스 221" transform="translate(-582.642 -331.922)"/>
        </g>
        <g id="prefix__그룹_198" data-name="그룹 198" transform="translate(0 54.07)">
            <path id="prefix__패스_222" d="M574.927 351.2l-.031.014a4.94 4.94 0 0 0 .108-.986 5.489 5.489 0 0 0-9.084-4.169 8.585 8.585 0 0 0-16.409 3.548c0 .091.017.162.022.246a6.439 6.439 0 0 0-.845 12.581c20.263-1.301 25.323-9.355 26.239-11.234z" class="tree_leftback2-4" data-name="패스 222" transform="translate(-543.979 -341.004)"/>
            <path id="prefix__패스_223" d="M576.022 347.57a6.113 6.113 0 0 0-3.068.852c-.915 1.881-5.976 9.936-26.239 11.237a6.48 6.48 0 0 0 1.764.275c.134 0 .265-.038.4-.045a3.335 3.335 0 0 0 .37.045h26.775a6.182 6.182 0 1 0 0-12.364z" class="tree_leftback2-3" data-name="패스 223" transform="translate(-542.007 -336.273)"/>
        </g>
        <g id="prefix__그룹_199" data-name="그룹 199" transform="translate(15.836 21.868)">
            <path id="prefix__패스_224" d="M559.22 333.645l.005.01a9.135 9.135 0 0 1-.095-1.089 6.115 6.115 0 0 1 10.125-4.647 9.576 9.576 0 0 1 18.3 3.959c0 .084-.033.174-.036.268a7.179 7.179 0 0 1 .948 14.026c-22.593-1.455-28.237-10.426-29.247-12.527z" class="tree_leftback2-3" data-name="패스 224" transform="translate(-548.897 -322.288)"/>
            <path id="prefix__패스_225" d="M560.067 329.473a6.828 6.828 0 0 1 3.439.955c1.01 2.1 6.653 11.072 29.25 12.524a7.237 7.237 0 0 1-1.968.3c-.15 0-.3-.033-.439-.04-.146.014-.281.04-.427.04h-29.855a6.892 6.892 0 0 1 0-13.783z" class="tree_leftback2-4" data-name="패스 225" transform="translate(-553.183 -317.111)"/>
        </g>
        <g id="prefix__그룹_200" data-name="그룹 200" transform="translate(75.4)">
            <path id="prefix__패스_226" d="M635.16 325.173a.117.117 0 0 0-.024.012 9.3 9.3 0 0 0 .141-1.5 8.4 8.4 0 0 0-13.9-6.388 13.148 13.148 0 0 0-25.125 5.435c0 .131.036.248.046.375A9.859 9.859 0 0 0 595 342.37c31.014-1.989 38.767-14.318 40.16-17.197z" class="tree_leftback2-4" data-name="패스 226" transform="translate(-587.802 -309.578)"/>
            <path id="prefix__패스_227" d="M636.857 319.021a9.341 9.341 0 0 0-4.713 1.3c-1.394 2.88-9.146 15.21-40.158 17.2a9.762 9.762 0 0 0 2.7.42c.2 0 .4-.047.6-.064a3.765 3.765 0 0 0 .578.064h40.918a.14.14 0 0 1 .034-.007l.026.007a9.461 9.461 0 1 0 .012-18.921z" class="tree_leftback2-3" data-name="패스 227" transform="translate(-584.786 -302.774)"/>
        </g>
        <g id="prefix__그룹_201" data-name="그룹 201" transform="translate(57.119 100.494)">
            <path id="prefix__패스_228" d="M586.764 390.835a24.676 24.676 0 0 1-9.587-1.9l1.881-4.517c15.082 6.294 29.862-2.292 38.251-14.857l7.884-1.573c-7.203 10.789-22.705 22.847-38.429 22.847z" class="tree_leftback2-2" data-name="패스 228" transform="translate(-577.177 -367.986)"/>
        </g>
        <g id="prefix__그룹_202" data-name="그룹 202" transform="translate(84.536 79.774)">
            <path id="prefix__패스_229" d="M623.039 365.8l-.022.01a4.943 4.943 0 0 0 .1-.948 5.334 5.334 0 0 0-5.334-5.33 5.278 5.278 0 0 0-3.455 1.3 8.3 8.3 0 0 0-15.867 3.434c0 .081.017.158.017.236a6.23 6.23 0 0 0-.817 12.168c19.601-1.262 24.498-9.05 25.378-10.87z" class="tree_leftback2-4" data-name="패스 229" transform="translate(-593.112 -355.943)"/>
            <path id="prefix__패스_230" d="M624.113 362.33a5.838 5.838 0 0 0-2.978.824c-.881 1.82-5.778 9.608-25.38 10.867a6.283 6.283 0 0 0 1.717.265c.124 0 .251-.029.373-.04a2.628 2.628 0 0 0 .367.04h25.902a5.978 5.978 0 1 0 0-11.956z" class="tree_leftback2-3" data-name="패스 230" transform="translate(-591.208 -351.341)"/>
        </g>
    </g>
</svg>
