<svg xmlns="http://www.w3.org/2000/svg" id="prefix__tree_rightfront" width="110.728" height="102.542" viewBox="0 0 110.728 102.542">
    <defs>
        <style>
            .tree_rightfront-1{fill:#c7a177}.tree_rightfront-2{fill:#3a8065}.tree_rightfront-3{fill:#116645}
        </style>
    </defs>
    <g id="prefix__그룹_205" data-name="그룹 205" transform="translate(29.943 46.423)">
        <path id="prefix__패스_231" d="M954.178 437.433l-2.994-1.663c3.757-6.761 4.344-14.291 1.571-20.143-2.213-4.661-6.83-6.769-11.37-8.527-2.561-.989-5.128-1.988-7.68-3-5.431-2.147-9.86-3.968-13.94-5.727-1.111-.482-2.28-.969-3.484-1.473-7.445-3.109-16.713-6.979-21.9-13.443l2.673-2.143c4.636 5.782 13.088 9.311 20.544 12.426 1.218.508 2.4 1 3.522 1.488 4.045 1.744 8.442 3.553 13.842 5.687q3.816 1.508 7.657 2.989c5.184 2.01 10.474 4.455 13.228 10.255 3.253 6.85 2.624 15.55-1.669 23.274z" class="tree_rightfront-1" data-name="패스 231" transform="translate(-894.385 -381.314)"/>
    </g>
    <g id="prefix__그룹_206" data-name="그룹 206" transform="translate(42.12 17.941)">
        <path id="prefix__패스_232" d="M913.609 404.287c-6.842-6.682-10.319-14.007-10.336-21.774-.026-12.565 9.011-21.609 9.4-21.988l2.4 2.44c-.085.082-8.415 8.459-8.376 19.571.023 6.8 3.154 13.3 9.3 19.3z" class="tree_rightfront-1" data-name="패스 232" transform="translate(-903.273 -360.525)"/>
    </g>
    <g id="prefix__그룹_207" data-name="그룹 207" transform="translate(69.1 43.689)">
        <path id="prefix__패스_233" d="M924.838 405.387a1.711 1.711 0 0 1-1.661-1.3c-.042-.17-3.9-17.1 23.279-24.706a1.714 1.714 0 0 1 .923 3.3c-24.016 6.72-20.913 20.443-20.878 20.581a1.714 1.714 0 0 1-1.663 2.125z" class="tree_rightfront-1" data-name="패스 233" transform="translate(-922.966 -379.319)"/>
    </g>
    <g id="prefix__그룹_208" data-name="그룹 208" transform="translate(38.458)">
        <path id="prefix__패스_234" d="M926.46 355.948l-.014.007a4.464 4.464 0 0 0 .081-.815 4.609 4.609 0 0 0-4.6-4.612 4.563 4.563 0 0 0-2.984 1.122 7.178 7.178 0 0 0-13.718 2.97c0 .07.018.13.021.2a5.385 5.385 0 0 0-.7 10.519c16.927-1.089 21.154-7.818 21.914-9.391z" class="tree_rightfront-2" data-name="패스 234" transform="translate(-900.6 -347.43)"/>
        <path id="prefix__패스_235" d="M927.971 354.4a5.149 5.149 0 0 0-2.574.71c-.756 1.574-4.987 8.3-21.924 9.393a5.385 5.385 0 0 0 1.476.23c.112 0 .216-.027.326-.033s.207.033.314.033h22.378a5.166 5.166 0 1 0 .006-10.333z" class="tree_rightfront-3" data-name="패스 235" transform="translate(-899.537 -344.851)"/>
    </g>
    <g id="prefix__그룹_209" data-name="그룹 209" transform="translate(0 29.432)">
        <path id="prefix__패스_236" d="M903.7 379.174c-.007.005-.012.011-.019.011a5.329 5.329 0 0 0 .1-.985 5.562 5.562 0 0 0-5.555-5.56 5.5 5.5 0 0 0-3.596 1.36 8.65 8.65 0 0 0-16.531 3.574c0 .086.022.164.025.247a6.489 6.489 0 0 0-.852 12.676c20.412-1.315 25.51-9.428 26.428-11.323z" class="tree_rightfront-2" data-name="패스 236" transform="translate(-872.53 -368.912)"/>
        <path id="prefix__패스_237" d="M905.521 377.045a6.187 6.187 0 0 0-3.1.859c-.915 1.895-6.013 10.008-26.426 11.319a6.538 6.538 0 0 0 1.782.275c.134 0 .258-.033.393-.042a3.138 3.138 0 0 0 .382.042h26.936a.075.075 0 0 1 .025 0 6.227 6.227 0 1 0 .011-12.454z" class="tree_rightfront-3" data-name="패스 237" transform="translate(-871.249 -365.902)"/>
    </g>
    <g id="prefix__그룹_210" data-name="그룹 210" transform="translate(71.574 23.668)">
        <path id="prefix__패스_238" d="M954.906 374.627c-.005.005-.011.005-.016.008a5.316 5.316 0 0 0-5.275-6.323 5.3 5.3 0 0 0-3.472 1.308 8.364 8.364 0 0 0-15.984 3.457c0 .081.022.159.025.238a6.272 6.272 0 0 0-.826 12.254c19.734-1.269 24.665-9.109 25.548-10.942z" class="tree_rightfront-3" data-name="패스 238" transform="translate(-924.772 -364.705)"/>
        <path id="prefix__패스_239" d="M956.67 372.613a5.957 5.957 0 0 0-3 .83c-.884 1.83-5.815 9.673-25.549 10.939a6.222 6.222 0 0 0 1.722.267c.129 0 .254-.029.381-.04a2.726 2.726 0 0 0 .367.04h26.079a6.018 6.018 0 0 0 0-12.036z" class="tree_rightfront-2" data-name="패스 239" transform="translate(-923.534 -361.779)"/>
    </g>
    <g id="prefix__그룹_211" data-name="그룹 211" transform="translate(31.551 28.486)">
        <path id="prefix__패스_240" d="M907.7 381.924c-13.562-3.109-12.11-13.6-12.094-13.7l3.384.522-1.692-.262 1.695.248c-.042.3-.9 7.476 9.471 9.853z" class="tree_rightfront-1" data-name="패스 240" transform="translate(-895.559 -368.222)"/>
    </g>
    <g id="prefix__그룹_212" data-name="그룹 212" transform="translate(23.302 16.001)">
        <path id="prefix__패스_241" d="M906.688 364.758l-.008.008a3.411 3.411 0 0 0 .053-.543 3.059 3.059 0 0 0-3.057-3.059 3.018 3.018 0 0 0-1.98.744 4.759 4.759 0 0 0-9.1 1.97c0 .045.014.09.014.137a3.567 3.567 0 0 0-.467 6.969c11.238-.721 14.041-5.184 14.545-6.226z" class="tree_rightfront-3" data-name="패스 241" transform="translate(-889.538 -359.109)"/>
        <path id="prefix__패스_242" d="M907.69 363.523a3.365 3.365 0 0 0-1.707.474c-.5 1.041-3.307 5.5-14.541 6.224a3.442 3.442 0 0 0 .977.152c.077 0 .147-.015.218-.021a1.4 1.4 0 0 0 .211.021h14.842a3.425 3.425 0 0 0 0-6.85z" class="tree_rightfront-2" data-name="패스 242" transform="translate(-888.833 -357.476)"/>
    </g>
    <g id="prefix__그룹_213" data-name="그룹 213" transform="translate(52.207 47.751)">
        <path id="prefix__패스_243" d="M910.911 395.374l-.275-3.414a1.846 1.846 0 0 0 1.358-.729c1.645-1.984 1.534-6.991 1.366-8.589l3.406-.359c.082.778.719 7.693-2.137 11.134a5.293 5.293 0 0 1-3.718 1.957z" class="tree_rightfront-1" data-name="패스 243" transform="translate(-910.636 -382.283)"/>
    </g>
    <g id="prefix__그룹_214" data-name="그룹 214" transform="translate(48.131 37.307)">
        <path id="prefix__패스_244" d="M922.591 379.576h-.008a2.815 2.815 0 0 0 .045-.469 2.666 2.666 0 0 0-2.659-2.665 2.632 2.632 0 0 0-1.723.651 4.144 4.144 0 0 0-7.919 1.713c0 .037.012.074.014.116a3.108 3.108 0 0 0-.412 6.069c9.78-.623 12.222-4.508 12.662-5.415z" class="tree_rightfront-2" data-name="패스 244" transform="translate(-907.661 -374.66)"/>
        <path id="prefix__패스_245" d="M924 378.324a2.97 2.97 0 0 0-1.488.412c-.44.907-2.881 4.792-12.663 5.421a3.222 3.222 0 0 0 .854.132c.067 0 .13-.014.193-.016s.118.016.182.016H924a2.983 2.983 0 0 0 0-5.965z" class="tree_rightfront-3" data-name="패스 245" transform="translate(-906.85 -373.304)"/>
    </g>
</svg>
