<svg xmlns="http://www.w3.org/2000/svg" id="prefix__tree_rightback2" width="121.149" height="173.574" viewBox="0 0 121.149 173.574">
    <defs>
        <style>
            .tree_rightback2-2{fill:#c7a177}.tree_rightback2-3{fill:#116645}.tree_rightback2-4{fill:#3a8065}
        </style>
    </defs>
    <g id="prefix__그룹_226" data-name="그룹 226" style="opacity:.46">
        <g id="prefix__그룹_216" data-name="그룹 216" transform="translate(42.336 67.818)">
            <path id="prefix__패스_246" d="M862.969 420.453h4.331V378.6c0-20.981-1.071-37.088-14.974-53.339a136.119 136.119 0 0 0-10.251-10.278l-1.878.047-4.678-.335 3.272 3.145a142.4 142.4 0 0 1 10.249 10.236c12.96 15.157 13.929 29.846 13.929 50.524z" class="tree_rightback2-2" data-name="패스 246" transform="translate(-835.515 -314.696)"/>
        </g>
        <g id="prefix__그룹_217" data-name="그룹 217" transform="translate(21.773 28.088)">
            <path id="prefix__패스_247" d="M825.347 306.059c-5.275-7.911-7.076-15.337-5.5-22.7l3.1.662c-1.387 6.485.262 13.118 5.038 20.28z" class="tree_rightback2-2" data-name="패스 247" transform="translate(-819.296 -283.359)"/>
        </g>
        <g id="prefix__그룹_218" data-name="그룹 218" transform="translate(62.631 40.302)">
            <path id="prefix__패스_248" d="M854.44 342.946l-2.917-1.24c2.372-5.585 6.183-10.894 10.219-16.516 7.086-9.874 14.412-20.083 13.545-31.967l3.163-.231c.948 13.031-6.718 23.713-14.134 34.044-3.928 5.477-7.639 10.648-9.876 15.91z" class="tree_rightback2-2" data-name="패스 248" transform="translate(-851.523 -292.993)"/>
        </g>
        <g id="prefix__그룹_219" data-name="그룹 219" transform="translate(73.364 65.456)">
            <path id="prefix__패스_249" d="M860.508 322.1h-.518v-3.17c9.015.01 16.724 0 23.358-6.1l2.144 2.333c-7.402 6.81-15.942 6.937-24.984 6.937z" class="tree_rightback2-2" data-name="패스 249" transform="translate(-859.989 -312.833)"/>
        </g>
        <g id="prefix__그룹_220" data-name="그룹 220" transform="translate(13.505 42.787)">
            <path id="prefix__패스_250" d="M820.97 306.363h.016a5.636 5.636 0 0 1-.109-1.093 6.146 6.146 0 0 1 10.167-4.672 9.61 9.61 0 0 1 18.365 3.977c0 .094-.028.181-.028.278a7.2 7.2 0 0 1 .948 14.073c-22.677-1.45-28.339-10.463-29.359-12.563z" class="tree_rightback2-3" data-name="패스 250" transform="translate(-810.604 -294.953)"/>
            <path id="prefix__패스_251" d="M819.69 304.56a6.77 6.77 0 0 1 3.45.961c1.021 2.1 6.683 11.112 29.36 12.568a7.1 7.1 0 0 1-1.983.311c-.146 0-.283-.033-.434-.043-.136.013-.281.043-.421.043h-29.971a6.92 6.92 0 0 1 0-13.839z" class="tree_rightback2-4" data-name="패스 251" transform="translate(-812.774 -292.38)"/>
        </g>
        <g id="prefix__그룹_221" data-name="그룹 221" transform="translate(85.582 47.842)">
            <path id="prefix__패스_252" d="M876.1 307.957l.025.01a4.488 4.488 0 0 1-.093-.87 4.856 4.856 0 0 1 8.037-3.691 7.6 7.6 0 0 1 14.516 3.142c0 .079-.014.143-.019.218a5.7 5.7 0 0 1 .747 11.13c-17.928-1.148-22.406-8.275-23.213-9.939z" class="tree_rightback2-4" data-name="패스 252" transform="translate(-867.911 -298.94)"/>
            <path id="prefix__패스_253" d="M875.1 306.824a5.386 5.386 0 0 1 2.714.752c.81 1.665 5.288 8.791 23.214 9.942a5.678 5.678 0 0 1-1.558.242c-.12 0-.234-.032-.351-.039a2.861 2.861 0 0 1-.33.039h-23.691a5.468 5.468 0 1 1 0-10.936z" class="tree_rightback2-3" data-name="패스 253" transform="translate(-869.626 -296.829)"/>
        </g>
        <g id="prefix__그룹_222" data-name="그룹 222" transform="translate(67.485 19.352)">
            <path id="prefix__패스_254" d="M885.874 286.519l-.009.006a8.085 8.085 0 0 0 .086-.965 5.414 5.414 0 0 0-8.959-4.113 8.472 8.472 0 0 0-16.191 3.505c0 .075.029.153.032.236a6.352 6.352 0 0 0-.839 12.409c19.992-1.285 24.984-9.222 25.88-11.078z" class="tree_rightback2-3" data-name="패스 254" transform="translate(-855.352 -276.468)"/>
            <path id="prefix__패스_255" d="M887.934 285.1a6.008 6.008 0 0 0-3.04.847c-.9 1.855-5.889 9.791-25.881 11.077a6.349 6.349 0 0 0 1.743.27c.131 0 .268-.029.387-.037a3.485 3.485 0 0 0 .378.037h26.414a6.1 6.1 0 0 0 0-12.194z" class="tree_rightback2-4" data-name="패스 255" transform="translate(-854.372 -274.158)"/>
        </g>
        <g id="prefix__그룹_223" data-name="그룹 223">
            <path id="prefix__패스_256" d="M812.037 275l.019.013a8.264 8.264 0 0 1-.125-1.325 7.432 7.432 0 0 1 12.3-5.651 11.631 11.631 0 0 1 22.229 4.809c0 .117-.032.221-.041.332a8.722 8.722 0 0 1 1.146 17.038c-27.436-1.757-34.298-12.664-35.528-15.216z" class="tree_rightback2-4" data-name="패스 256" transform="translate(-799.495 -261.204)"/>
            <path id="prefix__패스_257" d="M810.493 272.546a8.238 8.238 0 0 1 4.171 1.155c1.23 2.544 8.091 13.451 35.526 15.215a8.765 8.765 0 0 1-2.391.369c-.178 0-.354-.042-.53-.055a3.748 3.748 0 0 1-.511.055h-36.2a.077.077 0 0 0-.029-.008l-.023.008a8.369 8.369 0 1 1-.01-16.739z" class="tree_rightback2-3" data-name="패스 257" transform="translate(-802.122 -258.167)"/>
        </g>
        <g id="prefix__그룹_224" data-name="그룹 224" transform="translate(28.133 88.913)">
            <path id="prefix__패스_258" d="M858.313 351.549a21.829 21.829 0 0 0 8.482-1.684l-1.665-4c-13.346 5.568-26.42-2.026-33.843-13.143l-6.975-1.391c6.373 9.551 20.088 20.218 34.001 20.218z" class="tree_rightback2-2" data-name="패스 258" transform="translate(-824.312 -331.335)"/>
        </g>
        <g id="prefix__그룹_225" data-name="그룹 225" transform="translate(11.955 70.581)">
            <path id="prefix__패스_259" d="M817.817 325.592l.018.01a4.468 4.468 0 0 1-.085-.837 4.722 4.722 0 0 1 4.719-4.72 4.662 4.662 0 0 1 3.054 1.151 7.347 7.347 0 0 1 14.041 3.036c0 .071-.018.143-.018.21a5.511 5.511 0 0 1 .727 10.764c-17.344-1.106-21.673-8-22.456-9.614z" class="tree_rightback2-4" data-name="패스 259" transform="translate(-809.892 -316.876)"/>
            <path id="prefix__패스_260" d="M816.84 324.543a5.2 5.2 0 0 1 2.637.729c.778 1.614 5.112 8.5 22.455 9.615a5.538 5.538 0 0 1-1.521.235c-.109 0-.223-.024-.328-.034a2.876 2.876 0 0 1-.325.034H816.84a5.289 5.289 0 0 1 0-10.579z" class="tree_rightback2-3" data-name="패스 260" transform="translate(-811.552 -314.823)"/>
        </g>
    </g>
</svg>
