<svg id="woman" xmlns="http://www.w3.org/2000/svg" width="106.48" height="204.838" viewBox="0 0 106.48 204.838">
  <defs>
    <style>
      .woman-1 {
        fill: #fff;
      }

      .woman-2 {
        fill: #f54132;
      }

      .woman-3 {
        fill: #313131;
      }
    </style>
  </defs>
  <path id="패스_184" data-name="패스 184" class="woman-1" d="M2830.4,3154.658l-1.957-1.5-10.83,10.031,1.823,1.621Z" transform="translate(-2763.275 -3096.456)"/>
  <path id="패스_185" data-name="패스 185" class="woman-1" d="M2810.746,3179.11l-15.643,62.768H2809v1.657l11.809-56.49Z" transform="translate(-2790.167 -3065.458)"/>
  <path id="패스_186" data-name="패스 186" class="woman-1" d="M2832.9,3219.6v0h13.033l-2.667-9.888h-10.043l1.578,7.547Z" transform="translate(-2745.011 -3028.902)"/>
  <path id="패스_187" data-name="패스 187" class="woman-1" d="M2804.224,3246.911h60.493l1.269-.266-13.216-63.219-13.481,10.633c-.184.145-.373.283-.566.414a9.66,9.66,0,0,1-4.036,1.615,9.486,9.486,0,0,1-1.452.11,9.674,9.674,0,0,1-5.976-2.067l-11.67-9.206L2802.7,3246.59Z" transform="translate(-2781.095 -3060.301)"/>
  <path id="패스_188" data-name="패스 188" class="woman-1" d="M2828.367,3187.266l11.929,57.064v-1.657h13.9l-16.007-64.227-11.675,9.209Z" transform="translate(-2752.65 -3066.252)"/>
  <path id="패스_189" data-name="패스 189" class="woman-1" d="M2810.258,3174.27l13.572,10.687,12.728-10.687Z" transform="translate(-2772.064 -3071.24)"/>
  <path id="패스_190" data-name="패스 190" class="woman-1" d="M2822.751,3184.487l-3.518-2.77-3.138,2.633a5.354,5.354,0,0,0,6.665,8.377,5.26,5.26,0,0,0-.009-8.241Z" transform="translate(-2767.379 -3062.343)"/>
  <path id="패스_191" data-name="패스 191" class="woman-1" d="M2808.209,3209.711h-10.254l-2.668,9.888h13.248l-1.9-2.342Z" transform="translate(-2789.947 -3028.902)"/>
  <path id="패스_192" data-name="패스 192" class="woman-1" d="M2825.045,3163.233a14.618,14.618,0,0,0,14.57-13.764,8,8,0,0,1-2.554-5.849,7.882,7.882,0,0,1,.388-2.344,9.5,9.5,0,0,1-7.809-4.613,10.419,10.419,0,0,1-9.2,0,9.428,9.428,0,0,1-7.8,4.615,7.775,7.775,0,0,1-2.168,8.193A14.621,14.621,0,0,0,2825.045,3163.233Z" transform="translate(-2771.805 -3116.166)"/>
  <path id="패스_193" data-name="패스 193" class="woman-1" d="M2802.344,3224.186h65.092l-2.057-9.831H2804.4Z" transform="translate(-2781.517 -3023.355)"/>
  <path id="패스_194" data-name="패스 194" class="woman-1" d="M2827.317,3218.2l-21.865-17.245,10.85-37.586,9.766-7.475-3.082-2.739-11.168,8.544-11.438,39.632,25.922,20.447A9.7,9.7,0,0,1,2827.317,3218.2Z" transform="translate(-2783.862 -3096.467)"/>
  <g id="그룹_173" data-name="그룹 173" transform="translate(21.59 58.202)">
    <path id="패스_195" data-name="패스 195" class="woman-2" d="M2812.963,3193.618h6.482v-5.346h-4.731v-4.389h4.731V3171.51l.7-1.611,10.084-9.34-6.924-6.16-9.765,7.475-10.85,37.586,21.865,17.245a9.714,9.714,0,0,1,2.44-3.079l2.438-2.047-17.831-14.041Z" transform="translate(-2802.692 -3153.178)"/>
    <path id="패스_196" data-name="패스 196" class="woman-2" d="M2845.9,3160.867l-9.182-7.024L2825.757,3164l-1.824-1.622-8.2,7.6h13.389v4.389h-16.793v10.178h26.039v4.389h-26.039v5.346h27.79l1.411,3.873-16.644,13.978,2.8,2.205a9.629,9.629,0,0,1,3.624,6.7l26.035-20.534Z" transform="translate(-2791.183 -3153.843)"/>
  </g>
  <g id="그룹_174" data-name="그룹 174">
    <path id="패스_197" data-name="패스 197" class="woman-3" d="M2812.352,3162.821a7.735,7.735,0,0,0,1.306-.132,18.977,18.977,0,0,0,37.511,0,7.764,7.764,0,0,0,1.309.132,8.033,8.033,0,0,0,1.3-15.961,9.453,9.453,0,0,0-8.635-13.389,9.543,9.543,0,0,0-2.8.439,1.732,1.732,0,0,1,.15.476c-.057-.156-.083-.324-.15-.476a10.781,10.781,0,0,0-19.863,0c-.055.132-.079.281-.127.415a1.664,1.664,0,0,1,.127-.415,9.454,9.454,0,0,0-11.436,12.953,8.033,8.033,0,0,0,1.305,15.961Zm8.048-8.045a7.979,7.979,0,0,0-.389-2.344,9.428,9.428,0,0,0,7.8-4.615,1.8,1.8,0,0,1-.426-.261c.147.079.275.188.426.261a10.42,10.42,0,0,0,9.2,0c.164-.079.3-.2.465-.285a1.781,1.781,0,0,1-.465.285,9.5,9.5,0,0,0,7.808,4.613,7.884,7.884,0,0,0-.388,2.344,8,8,0,0,0,2.554,5.849,14.594,14.594,0,0,1-29.141,0A8,8,0,0,0,2820.4,3154.776Z" transform="translate(-2779.175 -3127.322)"/>
    <path id="패스_198" data-name="패스 198" class="woman-3" d="M2897.205,3279.775l2.129-2.725-17.166-68.872,2.309-1.821.75-2.331-12.046-41.745-.777-1.135-13.183-10.086-2.824.134-11.175,10.354-10.4-9.29-1.308-1.119-2.76-.079-13.183,10.086-.775,1.135-12.046,41.745.75,2.331,4.916,3.877-.854-.21-16.705,67.026,2.128,2.725h1.73l-3.066,11.37,1.933,2.526h15.29l-1.615,7.716,1.962,2.416h70.024l1.962-2.416-1.615-7.716h14.81l1.934-2.526-3.068-11.37ZM2847.193,3165.7l10.833-10.031,1.955,1.5,9.182,7.024,11.438,39.632-26.035,20.534a9.629,9.629,0,0,0-3.624-6.7l-2.8-2.205,16.644-13.978-1.411-3.873h-27.79v-5.346h26.039v-4.389h-26.039v-10.178h16.793V3173.3H2838.99Zm-2.484,52.639,3.518,2.77a5.232,5.232,0,1,1-7.635,6.979,5.337,5.337,0,0,1,.979-7.115ZM2831.048,3202h26.3l-12.726,10.687Zm13.944,32.868a9.516,9.516,0,0,0,1.452-.11,9.66,9.66,0,0,0,4.036-1.615q.29-.2.566-.415l13.481-10.633,13.216,63.218-1.269.266h-60.493l-1.528-.321,12.891-61.665,11.67,9.206A9.672,9.672,0,0,0,2844.992,3234.863Zm-35.62-31.04,11.438-39.632,11.168-8.544,3.082,2.739,6.924,6.161-10.084,9.34-.7,1.611v12.373h-4.731v4.389h4.731v5.346h-6.482l-1.359,3.919,17.831,14.041-2.438,2.047a9.771,9.771,0,0,0-3.454,6.656Zm-11.179,85.84,2.668-9.889h10.255l-1.578,7.547,1.9,2.342Zm-.4-14.278,15.643-62.768,10.062,7.935-11.809,56.49v-1.657Zm15.888,24.41,2.058-9.832h60.978l2.056,9.832Zm67.068-10.132v0l1.9-2.338-1.578-7.547h10.042l2.669,9.889Zm-.248-14.278v1.657l-12.123-57.989,10.012-7.9,16.007,64.228Z" transform="translate(-2792.854 -3098.965)"/>
  </g>
</svg>
