<svg id="woman_big" xmlns="http://www.w3.org/2000/svg" width="125.52" height="241.466" viewBox="0 0 125.52 241.466">
  <defs>
    <style>
      .womanBig-1 {
        fill: #fff;
      }

      .womanBig-2 {
        fill: #f54132;
      }

      .womanBig-3 {
        fill: #313131;
      }
    </style>
  </defs>
  <path id="패스_184" data-name="패스 184" class="womanBig-1" d="M2832.689,3154.926l-2.307-1.765-12.767,11.825,2.149,1.911Z" transform="translate(-2753.558 -3086.316)"/>
  <path id="패스_185" data-name="패스 185" class="womanBig-1" d="M2813.543,3179.11,2795.1,3253.1h16.38v1.954l13.92-66.591Z" transform="translate(-2789.284 -3045.135)"/>
  <path id="패스_186" data-name="패스 186" class="womanBig-1" d="M2832.9,3221.364v0h15.363l-3.145-11.656h-11.838l1.86,8.9Z" transform="translate(-2729.294 -2996.571)"/>
  <path id="패스_187" data-name="패스 187" class="womanBig-1" d="M2804.5,3258.262h71.31l1.5-.313-15.579-74.523-15.892,12.534c-.217.17-.44.334-.667.488a11.384,11.384,0,0,1-4.758,1.9,11.175,11.175,0,0,1-1.712.129,11.4,11.4,0,0,1-7.045-2.437l-13.757-10.852-15.2,72.691Z" transform="translate(-2777.233 -3038.284)"/>
  <path id="패스_188" data-name="패스 188" class="womanBig-1" d="M2828.7,3188.844l14.062,67.267v-1.954h16.381l-18.869-75.712L2826.51,3189.3Z" transform="translate(-2739.443 -3046.191)"/>
  <path id="패스_189" data-name="패스 189" class="womanBig-1" d="M2810.258,3174.27l16,12.6,15-12.6Z" transform="translate(-2765.234 -3052.817)"/>
  <path id="패스_190" data-name="패스 190" class="womanBig-1" d="M2824.284,3184.982l-4.146-3.265-3.7,3.1a6.312,6.312,0,0,0,7.857,9.875,6.2,6.2,0,0,0-.011-9.714Z" transform="translate(-2759.01 -3040.997)"/>
  <path id="패스_191" data-name="패스 191" class="womanBig-1" d="M2810.52,3209.711h-12.087l-3.145,11.656H2810.9l-2.243-2.76Z" transform="translate(-2788.992 -2996.571)"/>
  <path id="패스_192" data-name="패스 192" class="womanBig-1" d="M2827.651,3167.984a17.231,17.231,0,0,0,17.175-16.225,9.431,9.431,0,0,1-3.011-6.895,9.292,9.292,0,0,1,.458-2.763,11.2,11.2,0,0,1-9.2-5.438,12.283,12.283,0,0,1-10.842,0,11.115,11.115,0,0,1-9.2,5.441,9.165,9.165,0,0,1-2.555,9.657A17.235,17.235,0,0,0,2827.651,3167.984Z" transform="translate(-2764.891 -3112.501)"/>
  <path id="패스_193" data-name="패스 193" class="womanBig-1" d="M2802.344,3225.944h76.732l-2.425-11.589h-71.879Z" transform="translate(-2777.792 -2989.202)"/>
  <path id="패스_194" data-name="패스 194" class="womanBig-1" d="M2832.133,3229.826l-25.774-20.329,12.79-44.307,11.512-8.812-3.633-3.228-13.165,10.072-13.483,46.718,30.557,24.1A11.435,11.435,0,0,1,2832.133,3229.826Z" transform="translate(-2780.908 -3086.332)"/>
  <g id="그룹_173" data-name="그룹 173" transform="translate(25.45 68.609)">
    <path id="패스_195" data-name="패스 195" class="womanBig-2" d="M2814.8,3200.631h7.641v-6.3h-5.577v-5.174h5.577v-14.585l.828-1.9,11.887-11.01-8.162-7.262-11.511,8.812-12.79,44.307,25.774,20.329a11.455,11.455,0,0,1,2.876-3.63l2.874-2.413-21.019-16.552Z" transform="translate(-2802.692 -3152.96)"/>
    <path id="패스_196" data-name="패스 196" class="womanBig-2" d="M2851.906,3162.123l-10.824-8.281-12.924,11.972-2.15-1.912-9.67,8.962h15.783v5.174h-19.8v12h30.695v5.174h-30.695v6.3h32.759l1.664,4.566-19.62,16.477,3.3,2.6a11.351,11.351,0,0,1,4.272,7.893l30.691-24.206Z" transform="translate(-2787.402 -3153.843)"/>
  </g>
  <g id="그룹_174" data-name="그룹 174">
    <path id="패스_197" data-name="패스 197" class="womanBig-3" d="M2813.791,3169.168a9.1,9.1,0,0,0,1.54-.156,22.37,22.37,0,0,0,44.219,0,9.13,9.13,0,0,0,1.542.156,9.469,9.469,0,0,0,1.536-18.815,11.144,11.144,0,0,0-10.18-15.783,11.251,11.251,0,0,0-3.3.517,2.057,2.057,0,0,1,.177.561c-.068-.184-.1-.382-.177-.561a12.708,12.708,0,0,0-23.415,0c-.064.155-.093.331-.15.489a1.955,1.955,0,0,1,.15-.489,11.144,11.144,0,0,0-13.48,15.269,9.469,9.469,0,0,0,1.539,18.815Zm9.487-9.484a9.406,9.406,0,0,0-.458-2.763,11.113,11.113,0,0,0,9.2-5.441,2.118,2.118,0,0,1-.5-.307c.173.093.323.222.5.307a12.281,12.281,0,0,0,10.842,0c.194-.093.357-.232.549-.336a2.091,2.091,0,0,1-.549.336,11.2,11.2,0,0,0,9.2,5.438,9.294,9.294,0,0,0-.457,2.763,9.431,9.431,0,0,0,3.011,6.895,17.2,17.2,0,0,1-34.353,0A9.435,9.435,0,0,0,2823.278,3159.685Z" transform="translate(-2774.681 -3127.322)"/>
    <path id="패스_198" data-name="패스 198" class="womanBig-3" d="M2915.865,3302.791l2.51-3.213-20.236-81.188,2.721-2.146.885-2.748-14.2-49.209-.916-1.338-15.54-11.89-3.329.158-13.173,12.205-12.265-10.951-1.542-1.32-3.254-.093-15.54,11.89-.914,1.338-14.2,49.209.885,2.748,5.795,4.571-1.006-.248-19.692,79.012,2.509,3.213h2.039l-3.615,13.4,2.279,2.978h18.024l-1.9,9.1,2.313,2.848h82.545l2.313-2.848-1.9-9.1h17.459l2.28-2.978-3.616-13.4ZM2856.91,3168.32l12.77-11.825,2.3,1.765,10.824,8.28,13.483,46.718-30.691,24.206a11.35,11.35,0,0,0-4.272-7.893l-3.3-2.6,19.62-16.477-1.664-4.566h-32.759v-6.3h30.695v-5.174h-30.695v-12h19.8v-5.174H2847.24Zm-2.929,62.051,4.147,3.265a6.168,6.168,0,1,1-9,8.226,6.291,6.291,0,0,1,1.154-8.386Zm-16.1-19.267h31l-15,12.6Zm16.438,38.745a11.268,11.268,0,0,0,1.712-.129,11.39,11.39,0,0,0,4.758-1.9c.228-.155.451-.318.667-.489l15.891-12.534,15.579,74.522-1.5.314h-71.31l-1.8-.378,15.2-72.691,13.757,10.852A11.4,11.4,0,0,0,2854.315,3249.848Zm-41.989-36.59,13.483-46.718,13.165-10.071,3.633,3.229,8.162,7.262-11.887,11.01-.828,1.9v14.585h-5.577v5.174h5.577v6.3h-7.641l-1.6,4.62,21.019,16.552-2.874,2.413a11.517,11.517,0,0,0-4.072,7.846Zm-13.178,101.19,3.146-11.657h12.089l-1.86,8.9,2.243,2.76Zm-.473-16.831,18.439-73.992,11.861,9.354-13.92,66.591v-1.953Zm18.729,28.774,2.426-11.589h71.882l2.424,11.589Zm79.061-11.944v0l2.24-2.756-1.86-8.9h11.838l3.146,11.657Zm-.293-16.831v1.953l-14.29-68.358,11.8-9.308,18.869,75.713Z" transform="translate(-2792.854 -3089.65)"/>
  </g>
</svg>
